<?xml version="1.0" encoding="UTF-8"?>
<svg width="74px" height="33px" viewBox="0 0 74 33" version="1.1" xmlns="http://www.w3.org/2000/svg" xmlns:xlink="http://www.w3.org/1999/xlink">
    <!-- Generator: Sketch 49.1 (51147) - http://www.bohemiancoding.com/sketch -->
    <title>logo-bupa-white</title>
    <desc>Created with Sketch.</desc>
    <defs>
        <polygon id="path-1" points="0.130333803 0.101776056 51.6176056 0.101776056 51.6176056 32.8308817 0.130333803 32.8308817"></polygon>
    </defs>
    <g id="Symbols" stroke="none" stroke-width="1" fill="none" fill-rule="evenodd">
        <g id="top_bar" transform="translate(-76.000000, -10.000000)">
            <g id="logo-bupa-white" transform="translate(76.000000, 10.000000)">
                <path d="M19.8653,7.99405845 L19.2529761,7.99405845 C19.2529761,7.99405845 18.3462155,13.184481 18.2445958,13.7759599 C18.0231169,15.0449035 17.4133986,15.9151852 15.6910746,15.9151852 C14.713962,15.9151852 13.7603,15.3237063 13.9817789,14.0000444 C14.0703704,13.4789176 14.7191732,9.71638239 14.763469,9.41412887 C14.9458634,8.39272042 14.0755817,7.99405845 13.3590324,7.99405845 L12.8170606,7.99405845 C12.6841732,8.77574859 12.0874831,12.1005373 11.860793,13.4007486 C11.7698563,13.8603824 11.7406732,14.3301782 11.774807,14.7973683 C11.9780465,16.5587768 13.525793,17.6349035 15.4383282,17.6349035 C18.7422718,17.6349035 19.9851592,15.9099739 20.3890324,13.8567345 C20.5193141,13.1792697 21.1446662,9.75807254 21.1941732,9.42715704 C21.3374831,8.39272042 20.5036803,7.99405845 19.8653,7.99405845" id="Fill-1" fill="#FFFFFF" fill-rule="nonzero"></path>
                <path d="M6.69387324,9.78149718 C6.23788732,9.89275775 5.76809155,9.93496901 5.29985915,9.90656761 L3.71042254,9.90656761 L4.45042254,5.66980704 L6.53492958,5.66980704 C9.03894366,5.66980704 8.83309859,9.07537042 6.69387324,9.78149718 M5.78190141,15.8057225 C5.25738732,15.8966592 4.72427465,15.930793 4.19246479,15.9073423 L2.62908451,15.9073423 L3.41077465,11.4777648 L5.71415493,11.4777648 C8.77838028,11.4751592 8.49176056,15.133469 5.78190141,15.8057225 M10.7899296,7.34783521 C10.7899296,5.21121549 9.4193662,4.22107465 7.00915493,4.22107465 L2.34507042,4.22107465 L0,17.4368493 L4.2706338,17.4368493 C5.0825493,17.4582155 5.89524648,17.4102718 6.69908451,17.2938 C9.09366197,16.7880465 10.0655634,15.0474831 10.2583803,13.7681169 C10.5189437,11.9988915 9.40894366,10.828962 8.14,10.5449479 C9.0884507,10.3312859 10.7899296,9.34896197 10.7899296,7.34783521" id="Fill-3" fill="#FFFFFF" fill-rule="nonzero"></path>
                <g id="Group-7" transform="translate(22.147887, 0.158944)">
                    <g id="Fill-5-Clipped">
                        <mask id="mask-2" fill="white">
                            <use xlink:href="#path-1"></use>
                        </mask>
                        <g id="path-1"></g>
                        <path d="M50.3799817,21.2462338 C49.4992775,21.2462338 48.2954746,21.1943817 47.581531,20.9491915 C46.7347,20.6599662 45.9894887,20.0869873 45.1973761,19.4770085 C44.8013197,19.1750155 44.3922352,18.8597338 43.9518831,18.5650366 C43.5420169,18.2536634 43.0482493,18.0720507 42.5344183,18.0439099 C41.9611789,18.0439099 41.398362,18.3591915 40.7104746,19.0627127 C39.7906859,20.0114239 38.3211085,22.1636775 37.7348408,23.0441211 C37.7022704,23.1071775 37.6407775,23.1499099 37.5706859,23.1590296 C37.4273761,23.1590296 37.4221648,22.9711634 37.4221648,22.8984662 C37.3961085,20.4332761 37.007869,6.98299437 36.7394887,2.96797324 C36.6196296,1.19067042 36.0698408,0.101776056 35.2985732,0.101776056 C34.6784324,0.101776056 33.7534324,0.922290141 33.1749817,3.22853662 C31.6975873,9.12743099 28.5525873,22.2496634 27.2002634,28.9067972 C27.1895803,28.9852268 27.1174042,29.0402056 27.0389746,29.0295225 C26.9751366,29.0209239 26.9248479,28.9708958 26.9162493,28.9067972 C26.7651225,28.2241211 26.6296296,27.4528535 26.5019535,26.7991 C26.0980803,24.7458606 25.7489254,22.9711634 25.061038,21.9940507 C24.2793479,20.8866563 23.1094183,20.8165648 21.6997704,21.7517268 C21.3758901,21.9786775 21.0660803,22.2249099 20.7721648,22.4893817 C19.8654042,23.2710718 18.8439958,24.1515155 17.1451225,24.1515155 L0.53941831,24.1515155 L0.130333803,26.3558817 L17.611531,26.3558817 C19.3989958,26.3558817 21.0561789,25.3266563 22.0411085,24.6155789 C22.5413901,24.2560014 22.8905451,24.0472901 23.1693479,24.0472901 C23.5497704,24.0472901 23.7243479,24.4355296 23.8650521,25.0244028 C23.9354042,25.3112831 24.0239958,25.7070789 24.1256155,26.1656704 C24.4591366,27.6876211 24.9568127,30.0741211 25.5847704,31.6791915 C25.8818127,32.4220577 26.3169535,32.8308817 26.8146296,32.8308817 C27.5806859,32.8308817 28.3597704,31.9293324 28.8001225,30.530107 C29.3889958,28.6670789 32.9248408,13.353769 34.4126577,6.94156479 C34.475193,6.68100141 34.5090662,6.52987465 34.5116718,6.51919155 C34.5377282,6.40480423 34.6132915,6.32898028 34.7018831,6.32898028 C34.7904746,6.32898028 34.866038,6.39672676 34.8712493,6.54264225 L34.8712493,6.56609296 C34.9858972,13.0543817 35.3089958,24.4540296 35.791038,25.6239592 C36.0516014,26.2698958 36.4658972,26.6114944 36.9766014,26.6114944 C37.562869,26.6114944 38.2794183,26.137269 38.7718831,25.4048254 C39.0324465,25.0376915 39.3477282,24.5553887 39.6890662,24.0472901 C40.5358972,22.7939803 41.4921648,21.3739099 41.7735732,21.0716563 C42.1930803,20.6234873 42.6777282,20.6234873 43.3656155,21.0925014 L43.725193,21.3530648 C44.7348761,22.0888958 45.8641577,22.6451986 47.0630099,22.9974803 C48.0179746,23.2168746 48.9961296,23.3184944 49.9761085,23.2994732 C50.4972352,23.2994732 51.0730803,23.2788887 51.2372352,23.2684662 L51.6176577,21.2282549 C51.4144183,21.2282549 50.8776577,21.2462338 50.3799817,21.2462338" id="Fill-5" fill="#FFFFFF" fill-rule="nonzero" mask="url(#mask-2)"></path>
                    </g>
                </g>
                <path d="M28.2346218,9.49498169 C31.4030725,9.67216479 30.4155373,16.2696296 27.0568754,16.0950521 C23.6122275,15.9048408 24.73265,9.30216479 28.2346218,9.49498169 Z M23.2656782,21.1577986 L24.2219458,15.946531 C24.597157,16.6917423 25.65765,17.6349817 27.3487063,17.6349817 C30.3999035,17.6349817 32.2863824,15.256038 32.473988,12.4680099 C32.6772275,9.50800986 30.9366641,7.80131972 28.9172979,7.80131972 C27.5175514,7.75389718 26.1860725,8.40634789 25.365819,9.5418831 L25.3918754,9.41420704 C25.5846923,8.50223521 24.8082134,7.99413662 24.148988,7.99413662 L23.4949739,7.99413662 C23.4949739,7.99413662 21.7179317,18.1561085 21.4730021,19.383362 C21.1863824,20.8216718 22.3537063,21.1577986 22.7237063,21.1577986 L23.2656782,21.1577986 Z" id="Fill-8" fill="#FFFFFF" fill-rule="nonzero"></path>
                <path d="M39.1314606,9.31774648 C42.5761085,9.51056338 41.4556859,16.0923944 37.9537141,15.8995775 C34.787869,15.7328169 35.7727986,9.14316901 39.1314606,9.31774648 M37.349207,17.6271127 C39.2070239,17.6271127 40.2023761,16.806338 40.8094887,15.8683099 L40.7756155,16.0116197 C40.5984324,16.8897183 41.3306155,17.4290845 42.0185028,17.4290845 L42.6177986,17.4290845 L44.2775873,7.98366197 L42.2217423,7.98366197 L41.9611789,9.42457746 C41.5885732,8.68197183 40.5411085,7.78823944 38.8500521,7.78823944 C35.8587845,7.78823944 34.0869535,10.253169 33.7925169,12.8744366 C33.4381507,15.8735211 35.3741366,17.6271127 37.349207,17.6271127" id="Fill-10" fill="#FFFFFF" fill-rule="nonzero"></path>
            </g>
        </g>
    </g>
</svg>