<?xml version="1.0" encoding="UTF-8"?>
<svg width="88px" height="88px" viewBox="0 0 88 88" version="1.1" xmlns="http://www.w3.org/2000/svg" xmlns:xlink="http://www.w3.org/1999/xlink">
    <!-- Generator: Sketch 49.1 (51147) - http://www.bohemiancoding.com/sketch -->
    <title>Logos/Sanitas/complete/endorsement White</title>
    <desc>Created with Sketch.</desc>
    <defs></defs>
    <g id="design***" stroke="none" stroke-width="1" fill="none" fill-rule="evenodd">
        <g id="login" transform="translate(-671.000000, -165.000000)">
            <g id="Group" transform="translate(452.000000, 139.000000)">
                <g id="Logos/Bupa" transform="translate(219.000000, 26.000000)">
                    <g id="fills-/-bupa-cyan" fill="#0079C8" fill-rule="evenodd">
                        <rect id="Rectangle" x="0" y="0" width="88" height="88"></rect>
                    </g>
                    <path d="M44.3210811,22.7313514 C45.8105132,22.8339643 47.2358623,22.1098687 48.0313514,20.8464865 L47.9956757,21.0010811 C47.9227408,21.3924913 48.0354604,21.7955949 48.3008411,22.0924022 C48.5662217,22.3892095 48.9542509,22.5461539 49.3513514,22.5172973 L49.9459459,22.5172973 L51.7297297,12.4091892 L49.5475676,12.4091892 L49.2562162,13.9551351 C48.5649773,12.7809507 47.2748393,12.0922649 45.9145946,12.1713514 C42.7097297,12.1713514 40.807027,14.8113514 40.4859459,17.6297297 C40.1232432,20.8524324 42.2162162,22.7313514 44.3210811,22.7313514 Z M46.2297297,13.8124324 C49.9221622,14.0205405 48.7210811,21.0783784 44.9632432,20.8702703 C41.5681081,20.6978378 42.6264865,13.6281081 46.2297297,13.8302703 L46.2297297,13.8124324 Z M15.8281081,11.7016216 C15.8281081,9.41243243 14.3594595,8.34216216 11.772973,8.34216216 L6.76648649,8.34216216 L4.24540541,22.5172973 L8.82378378,22.5172973 C9.6947092,22.5399556 10.5659795,22.4882364 11.4281081,22.3627027 C13.3781162,22.0478127 14.9122197,20.5280466 15.2454054,18.5810811 C15.543962,17.0054147 14.5389993,15.4769244 12.9740541,15.1264865 C14.6022329,14.7810596 15.78195,13.3653991 15.8281081,11.7016216 Z M10.4767568,20.7751351 C9.91346781,20.8723809 9.34129545,20.9082663 8.77027027,20.8821622 L7.10540541,20.8821622 L7.94972973,16.1254054 L10.4232432,16.1254054 C13.6756757,16.1313514 13.3605405,20.0556757 10.452973,20.7751351 L10.4767568,20.7751351 Z M11.4459459,14.3118919 C10.957816,14.429925 10.4547339,14.4740199 9.95351351,14.4427027 L8.22324324,14.4427027 L9.02594595,9.90594595 L11.2556757,9.90594595 C13.9372973,9.91189189 13.7232432,13.5567568 11.4221622,14.3178378 L11.4459459,14.3118919 Z M25.5675676,12.3972973 L24.9016216,12.3972973 C24.9016216,12.3972973 23.9324324,17.9627027 23.8194595,18.5989189 C23.5816216,19.9605405 22.9275676,20.8940541 21.0783784,20.8940541 C20.0318919,20.8940541 19.0032432,20.2578378 19.247027,18.8367568 C19.3421622,18.2897297 20.0378378,14.2405405 20.0972973,13.9135135 C20.2935135,12.8194595 19.36,12.3913514 18.592973,12.3913514 L17.9983784,12.3913514 C17.8556757,13.2356757 17.2135135,16.7972973 16.9756757,18.1886486 C16.8783362,18.6817677 16.8463496,19.1855569 16.8805405,19.687027 C17.1005405,21.5778378 18.7594595,22.7313514 20.8108108,22.7313514 C24.3783784,22.7313514 25.6864865,20.8821622 26.1145946,18.6762162 C26.2513514,17.9508108 26.9232432,14.2762162 26.9767568,13.9194595 C27.0400169,13.5198226 26.9164979,13.1132479 26.6416239,12.8163376 C26.3667499,12.5194273 25.9708878,12.3649827 25.5675676,12.3972973 Z M29.2064865,26.5189189 L30.2351351,20.9297297 C30.9379903,22.09778 32.2272369,22.7835495 33.5886486,22.7135135 C36.8589189,22.7135135 38.8864865,20.1627027 39.0886486,17.1718919 C39.3027027,13.9967568 37.4416216,12.1654054 35.2713514,12.1654054 C33.7692723,12.114278 32.3403057,12.8142709 31.46,14.0324324 L31.46,13.8956757 C31.5387253,13.5069331 31.4316719,13.1037136 31.1704866,12.8052161 C30.9093013,12.5067186 30.5238608,12.3470879 30.1281081,12.3735135 L29.4562162,12.3735135 C29.4562162,12.3735135 27.5535135,23.3021622 27.2918919,24.6162162 C27.1490494,25.0513958 27.2200946,25.528473 27.4835389,25.9031494 C27.7469832,26.2778257 28.171886,26.5060968 28.6297297,26.5189189 L29.2064865,26.5189189 Z M34.5578378,14.0324324 C37.9410811,14.1989189 36.8648649,21.2864865 33.2972973,21.0902703 C29.7297297,20.8940541 30.7821622,13.8005405 34.54,14.0086486 L34.5578378,14.0324324 Z M82.0540541,26.7567568 C81.0433964,26.7910632 80.0328651,26.6850074 79.0513514,26.4416216 C78.1197208,26.0550839 77.2564168,25.52104 76.4945946,24.86 C76.0664865,24.532973 75.6324324,24.1940541 75.1567568,23.8789189 C74.718808,23.5439715 74.1908894,23.347296 73.6405405,23.3140541 C73.0459459,23.3140541 72.4216216,23.647027 71.6902703,24.4021622 C70.5287273,25.7519465 69.461861,27.180395 68.4972973,28.6772973 C68.463451,28.744403 68.399181,28.7909433 68.3248649,28.8021622 C68.1702703,28.8021622 68.1643243,28.6 68.1643243,28.5345946 C68.1345946,25.8886486 67.7183784,11.4578378 67.427027,7.12918919 C67.2962162,5.22054054 66.7075676,4.0372973 65.8810811,4.0372973 C65.2151351,4.0372973 64.2221622,4.9172973 63.6037838,7.4027027 C62.0221622,13.7291892 58.6448649,27.8032432 57.1940541,34.9502703 C57.1796605,35.0226004 57.1161808,35.0746925 57.0424324,35.0746925 C56.9686841,35.0746925 56.9052043,35.0226004 56.8908108,34.9502703 C56.7302703,34.2189189 56.5875676,33.3924324 56.4508108,32.6908108 C56.0167568,30.4848649 55.6421622,28.5821622 54.9048649,27.5356757 C54.0605405,26.3464865 52.8118919,26.2691892 51.3016216,27.2740541 C50.954747,27.5170725 50.6231312,27.7811736 50.3086486,28.0648649 C49.3394595,28.8972973 48.2394595,29.8486486 46.42,29.8486486 L28.5821622,29.8486486 L28.1421622,32.227027 L46.9016216,32.227027 C48.8162162,32.227027 50.5940541,31.1210811 51.6583784,30.36 C51.9942645,30.0587213 52.4050129,29.8533471 52.8475676,29.7654054 C53.2578378,29.7654054 53.4421622,30.1816216 53.5967568,30.8118919 C53.6740541,31.1210811 53.7632432,31.5432432 53.8702703,32.0367568 C54.2504105,34.0434544 54.7729939,36.0205285 55.4340541,37.952973 C55.7491892,38.7497297 56.2189189,39.1897297 56.7540541,39.1897297 C57.5745946,39.1897297 58.407027,38.2205405 58.8827027,36.7221622 C59.512973,34.7243243 63.3064865,18.2897297 64.9059459,11.4162162 L65.012973,10.9643243 C65.023739,10.8574495 65.1082603,10.7729282 65.2151351,10.7621622 C65.2983784,10.7621622 65.3935135,10.8335135 65.3935135,10.9881081 C65.5183784,17.9508108 65.8632432,30.1756757 66.3805405,31.4302703 C66.6659459,32.1259459 67.1059459,32.4945946 67.652973,32.4945946 C68.4598934,32.3807097 69.1699708,31.9029416 69.5794595,31.1983784 C69.852973,30.8059459 70.1740541,30.2886486 70.5664865,29.7416216 C71.4702703,28.3978378 72.4989189,26.8756757 72.8021622,26.5486486 C73.2540541,26.067027 73.7713514,26.067027 74.5086486,26.5486486 L74.8951351,26.8221622 C75.9734145,27.6166454 77.1801485,28.2200124 78.4627027,28.6059459 C79.4878541,28.842892 80.5382776,28.9527272 81.5902703,28.932973 C82.1848649,28.932973 82.7794595,28.932973 82.9459459,28.8972973 L83.3502703,26.7091892 C83.1659459,26.7567568 82.5891892,26.7567568 82.0540541,26.7567568 Z" id="Bupa" fill="#FFFFFF" fill-rule="nonzero"></path>
                </g>
            </g>
        </g>
    </g>
</svg>