<?xml version="1.0" encoding="UTF-8"?>
<svg width="28px" height="25px" viewBox="0 0 28 25" version="1.1" xmlns="http://www.w3.org/2000/svg" xmlns:xlink="http://www.w3.org/1999/xlink">
    <!-- Generator: Sketch 49.1 (51147) - http://www.bohemiancoding.com/sketch -->
    <title>Fill 1</title>
    <desc>Created with Sketch.</desc>
    <defs></defs>
    <g id="design***" stroke="none" stroke-width="1" fill="none" fill-rule="evenodd">
        <g id="Home_desk" transform="translate(-14.000000, -65.000000)" fill="#FFFFFF">
            <g id="Group" transform="translate(0.000000, 53.000000)">
                <path d="M32.904375,16.1575625 L34.138125,17.131875 L34.138125,13.55925 L32.904375,13.55925 L32.904375,16.1575625 Z M26.473125,35.0619375 L29.5911875,35.0619375 L29.5911875,28.5655 L26.473125,28.5655 L26.473125,35.0619375 Z M31.4750625,26.6825 L31.4750625,35.062375 L36.3475,35.062375 L36.3475,21.4198125 L27.9671875,14.4031875 L19.6511875,21.354625 L19.6511875,35.0619375 L24.71875,35.0619375 L24.71875,26.681625 L31.474625,26.681625 L31.4750625,26.6825 Z M27.9671875,19.47075 C28.87675,19.47075 29.5911875,20.1851875 29.5911875,21.09475 C29.5911875,22.00475 28.87675,22.7191875 27.9671875,22.7191875 C27.0571875,22.7191875 26.34275,22.00475 26.34275,21.09475 C26.34275,20.1851875 27.1228125,19.47075 27.9671875,19.47075 Z M35.5683125,12.195125 L35.5683125,18.30175 L42,23.694375 L40.8305625,25.12325 L38.23225,22.9795 L38.23225,36.9466875 L17.7681875,36.9466875 L17.7681875,22.9143125 L15.1694375,25.0580625 L14,23.6935 L27.9671875,12 L31.5398125,14.988125 L31.5398125,12.19425 L35.5674375,12.19425 L35.5683125,12.195125 Z" id="Fill-1"></path>
            </g>
        </g>
    </g>
</svg>