<?xml version="1.0" encoding="UTF-8"?>
<svg width="24px" height="28px" viewBox="0 0 24 28" version="1.1" xmlns="http://www.w3.org/2000/svg" xmlns:xlink="http://www.w3.org/1999/xlink">
    <!-- Generator: Sketch 49.1 (51147) - http://www.bohemiancoding.com/sketch -->
    <title>advisor</title>
    <desc>Created with Sketch.</desc>
    <defs></defs>
    <g id="design***" stroke="none" stroke-width="1" fill="none" fill-rule="evenodd">
        <g id="Home_desk" transform="translate(-16.000000, -290.000000)" fill="#FFFFFF" fill-rule="nonzero">
            <g id="Group" transform="translate(0.000000, 53.000000)">
                <g id="advisor" transform="translate(16.000000, 237.000000)">
                    <path d="M8.99158775,26.2552786 C8.99882541,26.6541616 8.67715159,26.9710708 8.29757647,26.9364221 C7.71695521,26.8831813 7.26741603,26.3871128 7.24731141,25.776957 C7.18941011,23.9811383 7.03902761,20.4875316 6.89266601,19.2013029 C6.75917137,18.0257811 6.63854369,16.9694171 6.52837039,16.0186896 C5.72659837,16.3989806 4.97307743,16.7953284 4.27665358,17.2068878 C3.28187726,17.7984516 2.70849366,18.228603 2.55730696,18.5007223 C2.44954622,18.9308737 2.31363903,19.9956886 2.15280212,21.6884061 C1.98955264,23.3811237 1.856058,24.8414411 1.74829728,26.0668232 C1.70567548,26.2941527 1.59711058,26.4919041 1.42421088,26.6634576 C1.2513112,26.8350111 1.06715294,26.9195202 0.874148638,26.9195202 L0.809009681,26.9195202 C0.570166861,26.8958577 0.37635838,26.7902213 0.225975862,26.5950052 C0.0747891619,26.4023244 0,26.1800655 0,25.9290734 C0.0225171628,25.7465338 0.0603138411,25.2927198 0.113390022,24.5659414 C0.166466202,23.839163 0.236430262,23.0371716 0.324890563,22.1625023 C0.413350877,21.2878328 0.508244657,20.4461221 0.616005382,19.6407503 C0.723766119,18.8353784 0.821876639,18.2725477 0.9071202,17.9531032 C1.12344586,17.2035073 1.92200114,16.4420803 3.30680698,15.6688219 C4.65140359,14.919226 5.83033819,14.3327328 6.84763167,13.9017363 C6.91839991,13.8544112 6.99077653,13.8121566 7.07119499,13.7935647 L7.13392139,13.7775079 C7.16367621,13.7724374 7.18941011,13.7851137 7.21916495,13.7825785 C7.27224113,13.7775079 7.32692569,13.7851137 7.38000187,13.7927195 C7.42503619,13.8003254 7.47087472,13.806241 7.51349651,13.8214527 C7.54325133,13.8315937 7.57381035,13.8265232 7.60436936,13.8400446 C7.83034523,13.9431457 7.98876959,14.1070934 8.07401315,14.3335779 C8.09411777,14.3834382 8.09170521,14.4341438 8.10135543,14.4840041 C8.10859309,14.510202 8.12387259,14.528794 8.12869771,14.5549917 C8.14397721,14.7375315 8.20187851,15.1888102 8.29677229,15.9122082 C8.39488279,16.6330709 8.49058077,17.4333722 8.58547455,18.3046612 C8.68117251,19.1784854 8.75917841,20.0210412 8.81949225,20.8323287 C8.86693915,21.4847391 8.96263711,24.7459458 8.99078357,26.2518982 L8.99158775,26.2552786 Z M11.5837804,14.4519036 C10.9130904,14.4519036 10.2263169,14.2642933 9.52587201,13.8890729 C8.82221056,13.5138524 8.1788629,12.9966566 7.59582908,12.3391757 C7.01279526,11.6816949 6.53510962,10.9126619 6.16840146,10.0388376 C5.80169329,9.1650134 5.6183392,8.22696224 5.6183392,7.22637433 L5.6183392,5.79478995 C5.6183392,4.33954299 6.0984374,3.01105973 7.06104634,1.80680485 C8.02365528,0.602549979 9.53150132,0 11.5845846,0 C13.791267,0 15.3417349,0.612691077 16.2392049,1.84060851 C17.1366748,3.06852592 17.5862141,4.38602301 17.5862141,5.79394485 L17.5862141,7.22552924 C17.5862141,8.24724443 17.40286,9.20135232 17.0361518,10.0878529 C16.6694437,10.9743536 16.1989957,11.7408512 15.6264163,12.3881909 C15.0538368,13.0355309 14.4104892,13.5425855 13.6963733,13.9042845 C12.9798448,14.2685188 12.2794,14.4510584 11.5853887,14.4510584 L11.5837804,14.4519036 Z M7.49192313,5.68221822 L7.49192313,7.14760626 C7.49192313,8.55552809 7.96156693,9.77245934 8.90165869,10.7950196 C9.8417505,11.8175798 10.7134866,12.3297051 11.512846,12.3297051 C12.3347227,12.3297051 13.2145006,11.8412425 14.1570049,10.8643171 C15.0995092,9.88739173 15.5667405,8.64848813 15.5667405,7.14845135 L15.5667405,5.68306331 C15.5667405,5.34249158 15.5337688,5.0255824 15.46863,4.72980051 C15.4034911,4.43401861 15.3053805,4.16189926 15.176711,3.91090719 C14.8526245,4.43401861 14.2744158,4.98332785 13.442889,5.56390546 C12.6113622,6.14448307 11.352009,6.5805501 9.66563407,6.87633201 C9.64311683,6.87633201 9.62301222,6.87633201 9.60049511,6.87633201 C9.57797787,6.87633201 9.55787327,6.87633201 9.53535616,6.87633201 C9.34154762,6.87633201 9.16301868,6.80787962 8.99976921,6.67266503 C8.83651975,6.53745046 8.74564689,6.35575587 8.72312971,6.12842635 C8.70061255,5.92475938 8.75610129,5.71940223 8.88637919,5.51573527 C9.01665709,5.31206831 9.20081539,5.18530464 9.43644147,5.1405148 C11.1879554,4.8447329 12.3612608,4.40866587 12.9547489,3.82808827 C13.5506497,3.25004592 13.8900156,2.82158471 13.9752591,2.54946538 C13.6736899,2.3457984 13.3093944,2.19790745 12.88961,2.10579252 C12.4674131,2.01621286 12.0074196,1.96804267 11.5120418,1.96804267 C10.2808353,1.96804267 9.30053425,2.30354385 8.57676813,2.97454622 C7.85300201,3.64301331 7.49111895,4.54557064 7.49111895,5.68137313 L7.49192313,5.68221822 Z M23.8975479,24.5644121 C23.8324089,23.8384789 23.7568156,23.0356423 23.6715721,22.160973 C23.5863285,21.2863035 23.4930431,20.4445928 23.3949326,19.639221 C23.2968221,18.8338491 23.2067534,18.2710184 23.118293,17.951574 C22.9019674,17.2019782 22.1034121,16.440551 20.7186063,15.6672926 C19.3338004,14.8940342 18.125111,14.2940196 17.0869088,13.8613329 C17.0539372,13.8452761 17.0217698,13.8478114 16.9887983,13.835135 C16.9582392,13.8249939 16.9333095,13.8004863 16.9035547,13.7928805 L16.8408283,13.7768237 C16.8207236,13.7742885 16.8054442,13.7818943 16.7853396,13.779359 C16.7378926,13.7742885 16.6920541,13.7818943 16.6446072,13.7869648 C16.5714264,13.7945707 16.5014623,13.8055569 16.4363234,13.8317546 C16.4266732,13.8368252 16.4162188,13.83429 16.4089811,13.8368252 C16.3888765,13.844431 16.3784221,13.863023 16.3583175,13.8740093 C16.3052413,13.900207 16.2529693,13.918799 16.2023056,13.9585184 C16.1749634,13.9821808 16.1596839,14.0117591 16.1347542,14.0379568 C16.1323417,14.0404922 16.129929,14.0430274 16.1275165,14.0455628 C15.9891968,14.1883831 15.8862611,14.3523308 15.8436394,14.557688 C15.8283598,14.7402277 15.7704585,15.1915063 15.6755648,15.9149043 C15.5774543,16.635767 15.4817563,17.4360684 15.3868626,18.3073573 C15.2911645,19.1811815 15.2131586,20.0237375 15.1528448,20.835025 C15.105398,21.4764491 15.0096999,24.7359656 14.9823577,26.241073 C14.97512,26.639956 15.2967939,26.9568651 15.676369,26.9222164 C16.2569903,26.8689756 16.7065294,26.3729072 16.7266341,25.7627513 C16.7845353,23.9669327 16.9349178,20.4733259 17.0812795,19.1870972 C17.2147741,18.006505 17.3354018,16.9476058 17.4479876,15.9943429 C18.2545847,16.3670281 19.0290144,16.754925 19.7350885,17.1774705 C20.7403193,17.7791753 21.3080736,18.2177776 21.4367431,18.4898971 C21.5678252,18.9200484 21.7133827,19.9848632 21.8742195,21.6775808 C22.0350565,23.3702984 22.1605092,24.8306159 22.2457528,26.055998 C22.2682699,26.3069901 22.3639679,26.510657 22.5376719,26.6686891 C22.7113757,26.8267211 22.90438,26.9061597 23.1207057,26.9061597 C23.1432228,26.9061597 23.1761943,26.9061597 23.2188162,26.9061597 C23.4576589,26.8824971 23.6514675,26.7768608 23.80185,26.5816446 C23.9530367,26.3889638 24.0181756,26.1667049 23.9956584,25.9157129 C23.998071,25.7441594 23.9650995,25.2895004 23.8999605,24.563567 L23.8975479,24.5644121 Z M12.9327037,27.3964579 L12.9327037,15.7764549 C12.9327037,15.7578628 12.9174242,15.7443413 12.9021446,15.7443413 L11.2664332,15.7443413 C11.2487412,15.7443413 11.2366785,15.760398 11.2366785,15.7764549 L11.2366785,27.3964579 C11.2366785,27.41505 11.2519579,27.4285714 11.2664332,27.4285714 L12.9021446,27.4285714 C12.9174242,27.4285714 12.9327037,27.4125147 12.9327037,27.3964579 Z" id="path-1"></path>
                </g>
            </g>
        </g>
    </g>
</svg>