<?xml version="1.0" encoding="UTF-8"?>
<svg width="60px" height="49px" viewBox="0 0 60 49" version="1.1" xmlns="http://www.w3.org/2000/svg" xmlns:xlink="http://www.w3.org/1999/xlink">
    <!-- Generator: Sketch 49.1 (51147) - http://www.bohemiancoding.com/sketch -->
    <title>path-1</title>
    <desc>Created with Sketch.</desc>
    <defs></defs>
    <g id="design***" stroke="none" stroke-width="1" fill="none" fill-rule="evenodd">
        <g id="Home_desk-menu" transform="translate(-776.000000, -606.000000)" fill="#0079C8" fill-rule="nonzero">
            <g id="doctor-advice" transform="translate(776.000000, 606.000000)">
                <path d="M53.1673164,0 L37.4637699,0 C33.7361697,0 30.6310863,3.05435538 30.6310863,6.72105737 L30.6310863,18.5880396 C30.6310863,22.2547414 33.7361697,25.3090968 37.4637699,25.3090968 L38.1725388,25.3090968 L34.1824317,28.9813323 C33.6499173,29.5051466 33.5617899,30.3757116 34.0943043,30.9013707 C34.3586865,31.1614336 34.7149458,31.340342 35.0730807,31.340342 C35.4312153,31.340342 35.7818496,31.2536544 35.9581044,30.9880583 L45.0052224,22.6992462 L37.3756425,22.6992462 C35.1555828,22.6992462 33.2917827,20.8658951 33.2917827,18.6821048 L33.2917827,6.81512264 C33.2917827,4.63133234 35.1555828,2.79798133 37.3756425,2.79798133 L53.079189,2.79798133 C55.2992487,2.79798133 57.1630488,4.63133234 57.1630488,6.81512264 L57.1630488,18.6821048 C57.1630488,20.8658951 55.2992487,22.6992462 53.079189,22.6992462 L49.0890819,22.6992462 L46.1583783,25.4031622 L53.1673164,25.4031622 C56.8949166,25.4031622 60,22.3488068 60,18.6821048 L60,6.81512264 C59.9118726,3.05619978 56.8949166,0.00184442698 53.1673164,0.00184442698 L53.1673164,0 Z M16.6094597,31.3366533 C20.6520683,31.3366533 25.3921956,27.0133385 25.3921956,21.4007763 L25.3921956,19.4124942 C25.3921956,15.6074609 23.1065092,11.4648992 16.6094597,11.4648992 C10.551172,11.4648992 7.82672383,15.4414633 7.82672383,19.4124942 L7.82672383,21.4007763 C7.73859646,26.9284955 12.5724763,31.3366533 16.6094597,31.3366533 Z M10.6392994,19.3258066 C10.6392994,16.1275866 12.9249857,14.2241477 16.6169599,14.2241477 C18.111375,14.2241477 19.3414081,14.4842106 20.308934,15.0024919 C20.044552,15.7808361 18.7263916,17.7691181 13.6356298,18.5474624 C12.932486,18.63415 12.4937242,19.2391189 12.5799765,19.9307755 C12.6681038,20.5357444 13.194993,20.9691824 13.8100095,20.9691824 C13.8981369,20.9691824 13.9862642,20.9691824 13.9862642,20.9691824 C18.9082715,20.1908385 21.1002053,18.2892438 22.0658562,16.9059308 C22.4183657,17.5975873 22.5927454,18.4626191 22.5927454,19.4124942 L22.5927454,21.4007763 C22.5927454,25.5507155 19.077026,28.570027 16.6150849,28.570027 C14.2412711,28.570027 10.6374243,25.3718071 10.6374243,21.4007763 L10.6374243,19.3258066 L10.6392994,19.3258066 Z M33.4792878,47.2336878 C33.3911604,46.2819682 32.6880165,38.0743104 32.1611274,36.2594036 C31.5461109,34.2711215 26.3653467,31.8567789 23.2902641,30.6449967 C22.5871202,30.3849338 21.8839763,30.7316844 21.6195943,31.3366533 C21.3552122,32.0283099 21.7077216,32.7199664 22.3227381,32.9800291 C22.4464915,33.0261398 22.5627446,33.0777833 22.6864979,33.1294271 C22.7915007,33.2843581 22.8683778,33.4577334 22.9377547,33.584998 C23.2902641,34.5367176 22.9377547,35.3999051 22.8496273,35.5732801 C22.2346108,35.4865928 21.6195943,35.6599678 21.0045777,36.004874 C19.5101626,36.8699056 19.0714008,38.6848127 19.9489244,40.1548132 C20.9164504,41.624814 22.8496273,42.0564076 24.255915,41.2780637 C25.7503302,40.4130318 26.1890919,38.598125 25.3115685,37.1281242 C24.9590589,36.6098429 24.5202972,36.1764047 23.993408,35.9181864 C24.145287,35.5382362 24.4321698,34.7027151 24.1509123,33.7509959 C26.9466123,35.0015107 29.3429268,36.4032681 29.6991861,37.0414366 C30.0516957,38.3380621 30.6667122,44.1258442 30.9292194,47.4974395 C30.9292194,48.1024084 31.5442359,48.6206897 32.1592524,48.6206897 C32.1592524,48.6206897 32.2473798,48.6206897 32.3355069,48.6206897 C33.0386508,48.5284686 33.5655402,47.9234997 33.4774128,47.2318431 L33.4792878,47.2336878 Z M24.4321698,37.6427167 C25.0471863,38.594436 24.696552,39.8043738 23.7290259,40.3226554 C22.7614999,40.8409367 21.5314669,40.5827181 21.0045777,39.6309988 C20.4776886,38.6792793 20.7401956,37.4693414 21.7077216,36.9510602 C22.6752476,36.4327789 23.9052806,36.6909972 24.4321698,37.6427167 Z M23.6408985,38.6811236 C23.6408985,39.1588279 23.249013,39.5461555 22.7614999,39.5461555 C22.2739868,39.5461555 21.8821013,39.1606723 21.8821013,38.6811236 C21.8821013,38.2015753 22.2739868,37.8160921 22.7614999,37.8160921 C23.2415128,37.8160921 23.6408985,38.2071084 23.6408985,38.6811236 Z M1.23967195,48.6170006 L1.15154458,48.6170006 C0.448400678,48.5303133 -0.0784884521,47.9253443 0.00963888785,47.2336878 C0.0977662578,46.2819682 0.800910158,38.0743104 1.32779929,36.2594036 C1.94281582,34.1844339 7.12357996,31.8567789 10.1986625,30.6449967 C10.813679,30.3849338 11.6049503,30.7316844 11.8693324,31.3366533 C12.1337145,31.9416222 11.781205,32.7199664 11.1661885,32.9800291 C7.65046912,34.4500299 4.14037483,36.2649367 3.78974041,37.0432809 C3.43723096,38.3399064 2.82221443,44.1332217 2.55970738,47.4992838 C2.46595486,48.1042528 1.94469088,48.622534 1.24154698,48.6170006 L1.23967195,48.6170006 Z M16.9619692,42.5710001 L16.2588253,39.4576235 C16.0825706,38.5925916 15.2912993,37.6427167 14.5881554,37.3826538 L11.2486907,35.9993406 L10.7218016,33.7509959 C10.4574195,33.9243709 10.1949124,34.0110585 9.93053035,34.1825895 L10.4574195,36.4309342 L8.34798784,39.5443112 C7.90922605,40.2359677 7.64484394,41.5325932 7.90922605,42.3976248 L8.61236995,45.5110018 C8.87675203,46.462721 9.75427561,47.0676899 10.5455468,46.8076273 L11.5130728,46.4608766 L11.6012002,46.8076273 C11.6893276,47.0676899 11.8655823,47.2392209 12.1280894,47.1543776 C12.3905964,47.0695346 12.4805988,46.8076273 12.3924715,46.5494087 L11.9537097,44.9060328 C11.8655823,44.6459699 11.6893276,44.4744389 11.4268205,44.5592822 C11.1643135,44.6441255 11.0743111,44.9060328 11.1624384,45.1642511 L11.2505658,45.5110018 L10.2830398,45.8577521 C9.93053035,46.0311274 9.49176856,45.6843771 9.40364119,45.2527832 L8.70049732,42.1394065 C8.52424258,41.5344376 8.70049732,40.6694057 9.05300677,40.2378121 L11.1624384,37.1244355 L14.3275234,38.421061 C14.7662852,38.594436 15.2950494,39.2860926 15.4694291,39.8910615 L16.172573,43.0044384 C16.2607003,43.436032 16.0844456,43.9561577 15.6456838,44.0428453 L15.0306673,44.3029083 L14.9425399,43.9561577 C14.8544126,43.696095 14.6781578,43.5245641 14.4156508,43.6094073 C14.1531437,43.6942503 14.0631413,43.9561577 14.1512687,44.2143763 L14.5900305,45.8577521 C14.6781578,46.117815 14.8544126,46.289346 15.1169196,46.2045027 C15.3794267,46.1196594 15.4694291,45.8577521 15.3813017,45.5995338 L15.2931743,45.2527832 L15.9081909,44.9927205 C16.7875895,44.5611266 17.2319764,43.5282528 16.9638442,42.5710001 L16.9619692,42.5710001 Z" id="path-1"></path>
            </g>
        </g>
    </g>
</svg>