<?xml version="1.0" encoding="UTF-8"?>
<svg width="24px" height="27px" viewBox="0 0 24 27" version="1.1" xmlns="http://www.w3.org/2000/svg" xmlns:xlink="http://www.w3.org/1999/xlink">
    <!-- Generator: Sketch 49.1 (51147) - http://www.bohemiancoding.com/sketch -->
    <title>bell-solid</title>
    <desc>Created with Sketch.</desc>
    <defs></defs>
    <g id="Symbols" stroke="none" stroke-width="1" fill="none" fill-rule="evenodd">
        <g id="top_bar" transform="translate(-1141.000000, -13.000000)" fill="#FFFFFF" fill-rule="nonzero">
            <g id="bell-solid" transform="translate(1141.000000, 13.000000)">
                <path d="M5.9345928,20 C4.32934036,18.3059773 3.33333333,15.9449176 3.33333333,13.3333333 C3.33333333,8.17867567 7.21353217,4 12,4 C16.7864679,4 20.6666667,8.17867567 20.6666667,13.3333333 C20.6666667,15.9449176 19.6706596,18.3059773 18.0654072,20 L22.6666667,20 C23.4030463,20 24,20.5969537 24,21.3333333 C24,22.0697129 23.4030463,22.6666667 22.6666667,22.6666667 L1.33333333,22.6666667 C0.596953667,22.6666667 0,22.0697129 0,21.3333333 C0,20.5969537 0.596953667,20 1.33333333,20 L5.9345928,20 Z M11.9822365,2.66666667 C11.2556673,2.66666667 10.6666667,2.069713 10.6666667,1.33333333 C10.6666667,0.596953667 11.2556673,0 11.9822365,0 C12.7088057,0 13.2978064,0.596953667 13.2978064,1.33333333 C13.2978064,2.069713 12.7088057,2.66666667 11.9822365,2.66666667 Z M3.33333333,13.3333333 L20.6666667,13.3333333 L20.6666667,22.6666667 L3.33333333,22.6666667 L3.33333333,13.3333333 Z M1.54573009,20 C2.53299609,20 3.33333333,19.1996628 3.33333333,18.2123968 C3.33333333,17.2251308 6.10820259,20 5.12093657,20 C4.13367057,20 3.33333333,20.8003372 3.33333333,21.7876032 C3.33333333,22.7748692 0.55846408,20 1.54573009,20 Z M9.33333333,24 L14.6666667,24 C14.6666667,25.4727593 13.4727593,26.6666667 12,26.6666667 C10.5272407,26.6666667 9.33333333,25.4727593 9.33333333,24 Z M22.4542699,20 C23.4415359,20 20.6666667,22.7748692 20.6666667,21.7876032 C20.6666667,20.8003372 19.8663295,20 18.8790635,20 C17.8917975,20 20.6666667,17.2251308 20.6666667,18.2123968 C20.6666667,19.1996628 21.4670039,20 22.4542699,20 Z" id="path-1"></path>
            </g>
        </g>
    </g>
</svg>