<?xml version="1.0" encoding="UTF-8"?>
<svg width="20px" height="19px" viewBox="0 0 20 19" version="1.1" xmlns="http://www.w3.org/2000/svg" xmlns:xlink="http://www.w3.org/1999/xlink">
    <!-- Generator: Sketch 49.1 (51147) - http://www.bohemiancoding.com/sketch -->
    <title>ok</title>
    <desc>Created with Sketch.</desc>
    <defs>
        <path d="M19.963125,3.119375 L21.87125,4.574375 C21.896875,4.601875 21.92375,4.633125 21.949375,4.671875 C21.975,4.710625 21.98875,4.75 21.98875,4.789375 C22.0025,4.841875 22.0025,4.890625 21.98875,4.9375 C21.975,4.984375 21.955625,5.025625 21.93,5.064375 L9.418125,21.554375 C9.390625,21.59375 9.355625,21.6225 9.310625,21.6425 C9.26375,21.661875 9.215,21.6775 9.161875,21.69125 L9.1425,21.69125 C9.09,21.69125 9.045,21.68125 9.00375,21.661875 C8.9625,21.6425 8.93125,21.61875 8.90625,21.59375 L2.0975,14.786875 C2.07,14.7475 2.04875,14.70875 2.029375,14.669375 C2.01,14.63 2,14.59125 2,14.551875 C2,14.499375 2.01,14.454375 2.029375,14.413125 C2.04875,14.371875 2.0725,14.340625 2.0975,14.315625 L3.78875,12.604375 C3.855,12.538125 3.936875,12.506875 4.035,12.506875 C4.133125,12.506875 4.215,12.54 4.28125,12.604375 L8.865,17.188125 L19.470625,3.198125 C19.523125,3.12 19.5975,3.073125 19.6975,3.059375 C19.7975,3.045625 19.885,3.065 19.963125,3.118125 L19.963125,3.119375 Z" id="path-1"></path>
    </defs>
    <g stroke="none" stroke-width="1" fill="none" fill-rule="evenodd">
        <g id="icons/navigation/ok" transform="translate(-2.000000, -3.000000)">
            <mask id="mask-2" fill="white">
                <use xlink:href="#path-1"></use>
            </mask>
            <use id="ok" fill="#0079C8" fill-rule="nonzero" xlink:href="#path-1"></use>
        </g>
    </g>
</svg>