<?xml version="1.0" encoding="UTF-8"?>
<svg width="24px" height="21px" viewBox="0 0 24 21" version="1.1" xmlns="http://www.w3.org/2000/svg" xmlns:xlink="http://www.w3.org/1999/xlink">
    <!-- Generator: Sketch 49.1 (51147) - http://www.bohemiancoding.com/sketch -->
    <title>linear</title>
    <desc>Created with Sketch.</desc>
    <defs></defs>
    <g id="design-desk***" stroke="none" stroke-width="1" fill="none" fill-rule="evenodd">
        <g id="Home_desk_despliegue-perfil_foto" transform="translate(-649.000000, -309.000000)" fill="#0079C8" fill-rule="nonzero">
            <g id="linear" transform="translate(649.000000, 309.000000)">
                <path d="M6,3.6 L8.4,0 L15.6,0 L18,3.6 L21.6,3.6 C22.9254834,3.6 24,4.6745166 24,6 L24,18 C24,19.3254834 22.9254834,20.4 21.6,20.4 L2.4,20.4 C1.0745166,20.4 0,19.3254834 0,18 L0,6 C0,4.6745166 1.0745166,3.6 2.4,3.6 L6,3.6 Z M17.4,4.8 L15,1.2 L9,1.2 L6.6,4.8 L2.4,4.8 C1.7372583,4.8 1.2,5.3372583 1.2,6 L1.2,18 C1.2,18.6627416 1.7372583,19.2 2.4,19.2 L21.6,19.2 C22.2627416,19.2 22.8,18.6627416 22.8,18 L22.8,6 C22.8,5.3372583 22.2627416,4.8 21.6,4.8 L17.4,4.8 Z M12.0009824,17.3993452 C8.63631898,17.3993452 6,14.7636017 6,11.3996725 C6,8.03574348 8.63631898,5.4 12.0009824,5.4 C15.365646,5.4 18,8.03574348 18,11.3996725 C18,14.7636017 15.365646,17.4 12.0009824,17.4 L12.0009824,17.3993452 Z M12,7.8 C9.98167512,7.8 8.4,9.38167512 8.4,11.4 C8.4,13.4183249 9.98018496,15 12,15 C14.019815,15 15.6,13.4183249 15.6,11.4 C15.6,9.38167512 14.0183249,7.8 12,7.8 Z" id="path-1"></path>
            </g>
        </g>
    </g>
</svg>