<?xml version="1.0" encoding="UTF-8"?>
<svg width="16px" height="16px" viewBox="0 0 16 16" version="1.1" xmlns="http://www.w3.org/2000/svg" xmlns:xlink="http://www.w3.org/1999/xlink">
    <!-- Generator: Sketch 49.1 (51147) - http://www.bohemiancoding.com/sketch -->
    <title>download-2</title>
    <desc>Created with Sketch.</desc>
    <defs></defs>
    <g id="design-desk***" stroke="none" stroke-width="1" fill="none" fill-rule="evenodd">
        <g id="subirdoc-01" transform="translate(-114.000000, -275.000000)" fill="#0079C8" fill-rule="nonzero">
            <g id="Group-6" transform="translate(114.000000, 275.000000)">
                <g id="download-2">
                    <path d="M13.9586041,6.49324216 L8.40214088,12.0492077 C8.10995744,12.3413911 7.63708816,12.3413911 7.34440696,12.0492077 L1.70083622,6.40563696 C1.42408324,6.12888394 1.42408324,5.67940922 1.70083622,5.40215849 C1.97758921,5.12490775 2.42706393,5.1254055 2.70431466,5.40215849 L7.12041624,9.81826 L7.12041624,0.70930396 C7.12041624,0.317569072 7.43748752,0 7.82972016,0 C8.2219528,0 8.53902416,0.317071312 8.53902416,0.70930396 L8.53902416,9.9068608 L12.9551257,5.49075926 C13.2318786,5.21400628 13.6813534,5.21400628 13.9586041,5.49075926 C14.2358549,5.76751225 14.2353571,6.2154937 13.9586041,6.49224664 L13.9586041,6.49324216 Z M2.16190411,11.5483138 L2.15199517,12.9106653 C2.14878166,13.3524814 2.50433931,13.7132491 2.94615543,13.7164626 C2.94809492,13.7164768 2.95003446,13.7164838 2.95197401,13.7164838 L12.9279837,13.7164838 C13.3698115,13.7164838 13.7279837,13.3583116 13.7279837,12.9164838 L13.7279837,11.2529004 C13.7279837,10.8110726 14.0861559,10.4529004 14.5279837,10.4529004 L14.955567,10.4529004 C15.3973948,10.4529004 15.755567,10.8110726 15.755567,11.2529004 L15.755567,14.4 C15.755567,15.2836556 15.0392226,16 14.155567,16 L1.6,16 C0.7163444,16 0,15.2836556 0,14.4 L0,11.5424953 C0,11.1006674 0.3581722,10.7424953 0.8,10.7424953 L1.36192527,10.7424953 C1.80375307,10.7424953 2.16192527,11.1006674 2.16192527,11.5424953 C2.16192527,11.5444348 2.16191822,11.5463743 2.16190411,11.5483138 Z" id="path-1"></path>
                </g>
            </g>
        </g>
    </g>
</svg>