<?xml version="1.0" encoding="UTF-8"?>
<svg width="24px" height="28px" viewBox="0 0 24 28" version="1.1" xmlns="http://www.w3.org/2000/svg" xmlns:xlink="http://www.w3.org/1999/xlink">
    <!-- Generator: Sketch 49.1 (51147) - http://www.bohemiancoding.com/sketch -->
    <title>linear</title>
    <desc>Created with Sketch.</desc>
    <defs></defs>
    <g id="design***" stroke="none" stroke-width="1" fill="none" fill-rule="evenodd">
        <g id="Home_desk" transform="translate(-16.000000, -401.000000)" fill="#FFFFFF" fill-rule="nonzero">
            <g id="Group" transform="translate(0.000000, 53.000000)">
                <g id="linear" transform="translate(16.000000, 348.000000)">
                    <path d="M18.9473684,13.7142857 L22.7368421,13.7142857 C23.4344649,13.7142857 24,14.3282953 24,15.0857143 L24,24 C24,26.0571429 22.7368421,27.4285714 20.8421053,27.4285714 L2.52631579,27.4285714 C1.13107011,27.4285714 0,26.2005525 0,24.6857143 L0,1.37142857 C0,0.614009486 0.565535053,0 1.26315789,0 L17.6842105,0 C18.3818333,0 18.9473684,0.614009486 18.9473684,1.37142857 L18.9473684,13.7142857 Z M18.3157895,26.0571429 C17.966978,26.0571429 17.6842105,25.0644235 17.6842105,24.6857143 L17.6842105,1.37142857 L1.26315789,1.37142857 L1.26315789,24.6857143 C1.26315789,25.6 1.68421052,26.0571429 2.52631579,26.0571429 L18.3157895,26.0571429 Z M18.9473684,15.0857143 L18.9473684,24 C18.9473684,25.1361286 19.795671,26.0571429 20.8421053,26.0571429 C21.8885395,26.0571429 22.7368421,25.1361286 22.7368421,24 L22.7368421,15.0857143 L18.9473684,15.0857143 Z M2.52631579,4.11428571 L8.84210526,4.11428571 L8.84210526,13.7142857 L2.52631579,13.7142857 L2.52631579,4.11428571 Z M2.52631579,15.0857143 L16.4210526,15.0857143 L16.4210526,16.4571429 L2.52631579,16.4571429 L2.52631579,15.0857143 Z M2.52631579,17.8285714 L8.84210526,17.8285714 L8.84210526,19.2 L2.52631579,19.2 L2.52631579,17.8285714 Z M10.1052632,17.8285714 L16.4210526,17.8285714 L16.4210526,19.2 L10.1052632,19.2 L10.1052632,17.8285714 Z M2.52631579,20.5714286 L8.84210526,20.5714286 L8.84210526,21.9428571 L2.52631579,21.9428571 L2.52631579,20.5714286 Z M10.1052632,20.5714286 L16.4210526,20.5714286 L16.4210526,21.9428571 L10.1052632,21.9428571 L10.1052632,20.5714286 Z M2.52631579,23.3142857 L8.84210526,23.3142857 L8.84210526,24.6857143 L2.52631579,24.6857143 L2.52631579,23.3142857 Z M10.1052632,23.3142857 L16.4210526,23.3142857 L16.4210526,24.6857143 L10.1052632,24.6857143 L10.1052632,23.3142857 Z M10.1052632,4.11428571 L16.4210526,4.11428571 L16.4210526,5.48571429 L10.1052632,5.48571429 L10.1052632,4.11428571 Z M10.1052632,6.85714286 L16.4210526,6.85714286 L16.4210526,8.22857143 L10.1052632,8.22857143 L10.1052632,6.85714286 Z M10.1052632,9.6 L16.4210526,9.6 L16.4210526,10.9714286 L10.1052632,10.9714286 L10.1052632,9.6 Z M10.1052632,12.3428571 L16.4210526,12.3428571 L16.4210526,13.7142857 L10.1052632,13.7142857 L10.1052632,12.3428571 Z M3.78947368,5.48571429 L7.57894737,5.48571429 L7.57894737,12.3428571 L3.78947368,12.3428571 L3.78947368,5.48571429 Z" id="path-1"></path>
                </g>
            </g>
        </g>
    </g>
</svg>