<?xml version="1.0" encoding="UTF-8"?>
<svg width="24px" height="26px" viewBox="0 0 24 26" version="1.1" xmlns="http://www.w3.org/2000/svg" xmlns:xlink="http://www.w3.org/1999/xlink">
    <!-- Generator: Sketch 49.1 (51147) - http://www.bohemiancoding.com/sketch -->
    <title>upload-2</title>
    <desc>Created with Sketch.</desc>
    <defs></defs>
    <g id="design***" stroke="none" stroke-width="1" fill="none" fill-rule="evenodd">
        <g id="Home_desk" transform="translate(-16.000000, -513.000000)" fill="#FFFFFF" fill-rule="nonzero">
            <g id="Group" transform="translate(0.000000, 53.000000)">
                <g id="upload-2" transform="translate(16.000000, 460.000000)">
                    <path d="M21.2627384,9.31220431 L21.2627384,9.31380956 C21.6843083,9.76006658 21.6850665,10.482425 21.2627384,10.9286822 C20.8404103,11.3749391 20.1557385,11.3749391 19.7341687,10.9286822 L13.0072488,3.80783255 L13.0072488,18.6386551 C13.0072488,19.2711201 12.5242632,19.7823894 11.9267865,19.7823894 C11.3293099,19.7823894 10.8463244,19.2703175 10.8463244,18.6386551 L10.8463244,3.95069901 L4.1194044,11.0715485 C3.69707637,11.5178056 3.01240451,11.5186083 2.59083469,11.0715485 C2.16926486,10.6244889 2.16926486,9.89972256 2.59083469,9.45346553 L11.187523,0.3533537 C11.6333558,-0.117784567 12.3536639,-0.117784567 12.7987385,0.3533537 L21.2627384,9.31220431 Z M3.29316608,18.5360569 L3.29319831,18.5266746 C3.29319831,17.8142387 2.74760495,17.2366953 2.07458142,17.2366953 L1.21861689,17.2366953 C0.545593365,17.2366953 0,17.8142387 0,18.5266746 L0,23.1343271 C0,24.5591989 1.09118673,25.7142857 2.43723378,25.7142857 L21.5627662,25.7142857 C22.9088133,25.7142857 24,24.5591989 24,23.1343271 L24,18.0597104 C24,17.3472745 23.4544067,16.7697311 22.7813831,16.7697311 L22.1300579,16.7697311 C21.4570344,16.7697311 20.911441,17.3472745 20.911441,18.0597104 L20.911441,20.7421956 C20.911441,21.4546315 20.3658477,22.032175 19.6928241,22.032175 L4.49665673,22.032175 L4.48779346,22.0321408 C3.81478773,22.0269591 3.27317702,21.4452304 3.27807207,20.7328132 L3.29316608,18.5360569 Z" id="path-1"></path>
                </g>
            </g>
        </g>
    </g>
</svg>