<?xml version="1.0" encoding="UTF-8"?>
<svg width="16px" height="16px" viewBox="0 0 16 16" version="1.1" xmlns="http://www.w3.org/2000/svg" xmlns:xlink="http://www.w3.org/1999/xlink">
    <!-- Generator: Sketch 49.1 (51147) - http://www.bohemiancoding.com/sketch -->
    <title>paper-clip</title>
    <desc>Created with Sketch.</desc>
    <defs></defs>
    <g id="design-desk***" stroke="none" stroke-width="1" fill="none" fill-rule="evenodd">
        <g id="Home_desk-formulario" transform="translate(-1245.000000, -706.000000)" fill="#0079C8" fill-rule="nonzero">
            <g id="Group-15" transform="translate(90.000000, 53.000000)">
                <path d="M1156,667.183074 C1155.355,666.526647 1155,665.654633 1155,664.726688 C1155,663.798742 1155.3545,662.926219 1156,662.270302 L1163.897,654.239633 C1164.683,653.440329 1165.7285,653 1166.839,653 C1167.9495,653 1168.9955,653.440329 1169.781,654.239633 C1170.5665,655.038938 1171,656.101626 1171,657.231431 C1171,658.361236 1170.567,659.424433 1169.781,660.223229 L1165.295,664.785161 C1165.1105,664.972784 1164.814,664.972784 1164.6295,664.785161 C1164.445,664.597538 1164.445,664.296019 1164.6295,664.108396 L1169.1155,659.546464 C1169.7235,658.928173 1170.059,658.105479 1170.059,657.231431 C1170.059,656.357383 1169.7245,655.534181 1169.1155,654.916398 C1168.5075,654.298107 1167.6985,653.958453 1166.839,653.958453 C1165.9795,653.958453 1165.1705,654.298615 1164.5625,654.916398 L1156.6655,662.947066 C1156.1985,663.421971 1155.9405,664.054499 1155.9405,664.726688 C1155.9405,665.398876 1156.1985,666.031404 1156.6655,666.506309 C1157.1325,666.981214 1157.7545,667.243581 1158.4155,667.243581 C1159.0765,667.243581 1159.6985,666.981214 1160.1655,666.506309 L1167.881,658.661738 C1168.517,658.014973 1168.517,656.961437 1167.881,656.313146 C1167.573,655.999933 1167.162,655.827056 1166.7265,655.827056 C1166.291,655.827056 1165.881,656.000442 1165.572,656.313146 L1159.414,662.57538 C1159.2295,662.763003 1158.9325,662.763003 1158.7485,662.57538 C1158.5645,662.387757 1158.564,662.086238 1158.7485,661.898615 L1164.9065,655.636382 C1165.3925,655.142156 1166.0395,654.869111 1166.727,654.869111 C1167.4145,654.869111 1168.0615,655.14063 1168.5475,655.634856 C1169.5505,656.654834 1169.5505,658.315475 1168.5475,659.336977 L1160.832,667.183074 C1160.1865,667.8395 1159.329,668.2 1158.4165,668.2 C1157.503,668.2 1156.645,667.8395 1156,667.183074 Z" id="paper-clip"></path>
            </g>
        </g>
    </g>
</svg>