<?xml version="1.0" encoding="utf-8"?>
<!-- Generator: Adobe Illustrator 21.0.0, SVG Export Plug-In . SVG Version: 6.00 Build 0)  -->
<svg version="1.1" id="Layer_1" xmlns="http://www.w3.org/2000/svg" xmlns:xlink="http://www.w3.org/1999/xlink" x="0px" y="0px"
	 viewBox="0 0 20 24" style="enable-background:new 0 0 20 24;" xml:space="preserve">
<style type="text/css">
	.st0{fill:#FFFFFF;}
</style>
<g>
	<path id="path-1" class="st0" d="M3,20.4h6v-1.2H3V20.4z M3,17.4h12.6v-1.2H3V17.4z M3,14.4h12.6v-1.2H3V14.4z M3,11.4h12.6v-1.2H3
		V11.4z M3,8.4h7.2V7.2H3V8.4z M3,5.4h7.2V4.2H3V5.4z M0,22.8V1.2C0,0.5,0.5,0,1.2,0H13c0.2,0,0.4,0.1,0.6,0.2L19,5.6
		c0.2,0.1,0.2,0.4,0.2,0.6v16.6c0,0.7-0.5,1.2-1.2,1.2H1.2C0.5,24,0,23.5,0,22.8z M18,22.4V7.1c0-0.2-0.2-0.4-0.4-0.4H13
		c-0.6,0-1-0.5-1-1.1v-4c0-0.2-0.2-0.4-0.4-0.4H1.6c-0.2,0-0.4,0.1-0.4,0.4v20.8c0,0.2,0.2,0.4,0.4,0.4h16.1
		C17.8,22.8,18,22.7,18,22.4z M17.4,5.6l-4.2-4.2v3.8c0,0.2,0.1,0.4,0.4,0.4H17.4z"/>
</g>
<title>document-text-linear</title>
<desc>Created with Sketch.</desc>
<g id="Symbols">
	<g id="top_bar" transform="translate(-1218.000000, -15.000000)">
		<g id="document-text-linear">
			<path id="path-1_1_" class="st0" d="M1221,35.4h6v-1.2h-6V35.4z M1221,32.4h12.6v-1.2H1221V32.4z M1221,29.4h12.6v-1.2H1221V29.4
				z M1221,26.4h12.6v-1.2H1221V26.4z M1221,23.4h7.2v-1.2h-7.2V23.4z M1221,20.4h7.2v-1.2h-7.2V20.4z M1218,37.8V16.2
				c0-0.7,0.5-1.2,1.2-1.2h11.8c0.2,0,0.4,0.1,0.6,0.2l5.4,5.4c0.2,0.1,0.2,0.4,0.2,0.6v16.6c0,0.7-0.5,1.2-1.2,1.2h-16.8
				C1218.5,39,1218,38.5,1218,37.8z M1236,37.4V22.1c0-0.2-0.2-0.4-0.4-0.4h-4.7c-0.6,0-1-0.5-1-1.1v-4c0-0.2-0.2-0.4-0.4-0.4h-10.1
				c-0.2,0-0.4,0.1-0.4,0.4v20.8c0,0.2,0.2,0.4,0.4,0.4h16.1C1235.8,37.8,1236,37.7,1236,37.4z M1235.4,20.6l-4.2-4.2v3.8
				c0,0.2,0.1,0.4,0.4,0.4H1235.4z"/>
		</g>
	</g>
</g>
</svg>
