<?xml version="1.0" encoding="UTF-8"?>
<svg width="16px" height="17px" viewBox="0 0 16 17" version="1.1" xmlns="http://www.w3.org/2000/svg" xmlns:xlink="http://www.w3.org/1999/xlink">
    <!-- Generator: Sketch 49.1 (51147) - http://www.bohemiancoding.com/sketch -->
    <title>path-1</title>
    <desc>Created with Sketch.</desc>
    <defs></defs>
    <g id="design-desk***" stroke="none" stroke-width="1" fill="none" fill-rule="evenodd">
        <g id="revista-02" transform="translate(-495.000000, -172.000000)" fill="#0079C8" fill-rule="nonzero">
            <g id="Group-7" transform="translate(495.000000, 172.000000)">
                <path d="M11.8915709,11.5053569 L15.838389,15.452175 C15.9447528,15.5874531 16,15.7377049 16,15.9055118 C16,16.0733186 15.9452691,16.2184071 15.838389,16.3397444 C15.7707499,16.4073835 15.6994966,16.4543694 15.6272105,16.4817348 C15.5528591,16.5091002 15.4754098,16.5220085 15.3948625,16.5220085 C15.3143152,16.5220085 15.2368659,16.5091002 15.1625145,16.4817348 C15.0881632,16.4543694 15.023622,16.4073835 14.9704401,16.3397444 L10.9626952,12.3335485 C10.3833742,12.7641667 9.74777327,13.1018458 9.05537621,13.3434878 C8.36143021,13.585646 7.63237379,13.706467 6.86407644,13.706467 C5.90886793,13.706467 5.01665159,13.5242029 4.18897637,13.1612237 C3.36130114,12.7982444 2.63534271,12.306183 2.00903575,11.6865883 C1.38479411,11.0700917 0.892216339,10.3425842 0.535949395,9.50819672 C0.17968246,8.67380918 0,7.78675618 0,6.84445589 C0,5.90215566 0.177617143,5.01303729 0.535949395,4.17916612 C0.892732668,3.34477862 1.38324513,2.6172712 2.00903575,1.9992255 C2.63482638,1.37963082 3.36130114,0.892216339 4.18897637,0.535949395 C5.01820058,0.177617143 5.90886793,0 6.86562537,0 C7.80637664,0 8.69549498,0.177617143 9.5293662,0.533884086 C10.3632373,0.890151022 11.0897121,1.37756551 11.7093068,1.99716019 C12.3289015,2.61520588 12.8163159,3.3427133 13.1725829,4.1771008 C13.5288499,5.01148831 13.7085323,5.90060667 13.7085323,6.84239056 C13.7085323,7.74441721 13.5469214,8.59481085 13.2242158,9.39512067 C12.8999613,10.1969794 12.4559184,10.9007358 11.8915709,11.5053569 Z M1.25158126,6.84393958 C1.25158126,7.62307991 1.39666967,8.35420159 1.68581386,9.03369041 C1.97495804,9.71317924 2.37459661,10.3085065 2.88627855,10.8196721 C3.39796049,11.331354 3.99328772,11.7346069 4.67226022,12.031496 C5.35123272,12.3283852 6.08235445,12.4750226 6.8620111,12.4750226 C7.6282432,12.4750226 8.35626692,12.3263198 9.04195167,12.031496 C9.7276365,11.7366722 10.3229637,11.331354 10.8279334,10.8196721 C11.332903,10.3079901 11.7330579,9.71266293 12.028398,9.03369041 C12.3237382,8.3547179 12.4719246,7.62359622 12.4719246,6.84393958 C12.4719246,6.07564217 12.3232219,5.34968374 12.028398,4.66244997 C11.731509,3.97676519 11.331354,3.38143796 10.8279334,2.8764683 C10.3229637,2.37149864 9.7276365,1.97134374 9.04195167,1.67445462 C8.35626692,1.37911449 7.6282432,1.23092809 6.8620111,1.23092809 C6.08132179,1.23092809 5.35174905,1.37963082 4.67226022,1.67445462 C3.99277139,1.97134374 3.39744416,2.37149864 2.88627855,2.8764683 C2.37511294,3.38143796 1.97444171,3.97676519 1.68581386,4.66244997 C1.397186,5.34813475 1.25158126,6.0761585 1.25158126,6.84393958 Z" id="path-1"></path>
            </g>
        </g>
    </g>
</svg>