<?xml version="1.0" encoding="UTF-8"?>
<svg width="23px" height="26px" viewBox="0 0 23 26" version="1.1" xmlns="http://www.w3.org/2000/svg" xmlns:xlink="http://www.w3.org/1999/xlink">
    <!-- Generator: Sketch 49.1 (51147) - http://www.bohemiancoding.com/sketch -->
    <title>linear</title>
    <desc>Created with Sketch.</desc>
    <defs></defs>
    <g id="Symbols" stroke="none" stroke-width="1" fill="none" fill-rule="evenodd">
        <g id="top_bar" transform="translate(-1234.000000, -14.000000)" fill="#FFFFFF" fill-rule="nonzero">
            <g id="linear" transform="translate(1234.000000, 14.000000)">
                <path d="M12.1697229,18.8023071 C10.970747,18.8023071 9.84833515,18.5781037 8.79301545,18.1241704 C7.74006369,17.6749739 6.81971756,17.0607826 6.03513431,16.2839648 C5.2481831,15.5016208 4.63172483,14.5969123 4.17549836,13.5579974 C3.72163984,12.5246085 3.49510525,11.4091171 3.49510525,10.2225753 C3.49510525,9.03129672 3.72479711,7.91580527 4.17549836,6.87452202 C4.63172483,5.82850208 5.25055106,4.91826735 6.03513431,4.13829173 C6.81971756,3.35831611 7.73927437,2.74175643 8.79301545,2.29334938 C9.84675659,1.84494235 10.970747,1.61994937 12.1697229,1.61994937 C13.3608054,1.61994937 14.4761134,1.8441529 15.5290652,2.29334938 C16.579649,2.74254587 17.502363,3.35910556 18.2845784,4.13829173 C19.0715296,4.91510956 19.6927237,5.82613372 20.1442144,6.87452202 C20.5980728,7.91817361 20.8253967,9.03050727 20.8253967,10.2225753 C20.8253967,11.1651774 20.680162,12.062781 20.3912711,12.9138069 C20.1023804,13.7719381 19.698249,14.554282 19.1725624,15.2600495 L20.2673481,18.4352133 L16.9198455,17.3891934 C16.2512922,17.8431267 15.503807,18.1912737 14.6994908,18.4352133 C13.8951745,18.6791531 13.0569175,18.8030966 12.1689335,18.8030966 L12.1697229,18.8023071 Z M12.1697229,0.000789448421 C10.7386872,0.000789448421 9.40236991,0.264465423 8.15129898,0.797343499 C6.91048926,1.33258993 5.82043949,2.06519862 4.88036037,2.99280121 C3.9426492,3.92277215 3.20542512,5.01063289 2.66789877,6.2492784 C2.13037242,7.49266059 1.86121459,8.81972438 1.86121459,10.2233648 C1.86121459,11.6317417 2.13037242,12.959595 2.66789877,14.1974511 C3.20542512,15.4408333 3.94343852,16.5192206 4.88036037,17.4412971 C5.81728222,18.3633735 6.9081213,19.0967717 8.15129898,19.6343865 C9.40158056,20.1720013 10.7363192,20.4412033 12.1697229,20.4412033 C13.0671787,20.4412033 13.9385871,20.3275227 14.7721081,20.1033192 C15.6135224,19.8791156 16.4052095,19.570441 17.1495375,19.1733483 L22.8500004,20.9740814 L20.9903644,15.4850424 C21.4639559,14.7224347 21.8294108,13.8935132 22.0851501,12.998278 C22.3487827,12.1077796 22.4774417,11.1778086 22.4774417,10.2225753 C22.4774417,8.81893493 22.2082839,7.49187114 21.6636537,6.24848894 C21.1182342,5.00984344 20.3810101,3.9219827 19.4511921,2.99201176 C18.52611,2.06440917 17.4336923,1.33180048 16.1802534,0.796554051 C14.929972,0.263675975 13.5928653,0 12.1697229,0 L12.1697229,0.000789448421 Z M1.39314832,17.6891841 C1.39314832,16.8697359 1.54154033,16.1008127 1.837535,15.3800457 L1.73650215,15.1479476 C1.56364126,14.7555916 1.42077448,14.3513937 1.30237661,13.9369329 C1.11767593,14.237713 0.956654825,14.5534926 0.81378805,14.8913768 C0.438861452,15.7621391 0.256528724,16.6976361 0.256528724,17.6891841 C0.256528724,18.362584 0.345721798,19.0162478 0.525686558,19.6430703 C0.70565133,20.276998 0.959812099,20.8619797 1.28027568,21.3995944 L0,25.2631579 L3.92923079,23.9929344 C4.43755232,24.2763466 4.98218254,24.4910768 5.56470009,24.6513349 C6.14169239,24.8115931 6.739207,24.8881696 7.35803322,24.8881696 C8.34468217,24.8881696 9.26739628,24.7002807 10.1253862,24.3181875 C10.9841654,23.9408308 11.7340187,23.4253206 12.3820496,22.7740252 C12.8682703,22.2853563 13.2724017,21.7351103 13.6054944,21.1185505 C13.1169058,21.2393362 12.6164774,21.3182812 12.105788,21.360122 C11.9455562,21.5724837 11.7726953,21.7722144 11.5856266,21.9616821 C11.0457324,22.5119281 10.4111197,22.9437567 9.68652472,23.2619046 C8.96114047,23.5776843 8.18681834,23.7379424 7.36040118,23.7379424 C6.75104678,23.7379424 6.17405448,23.6487346 5.61679515,23.4766348 C5.06427174,23.3037455 4.55121429,23.055069 4.09025189,22.7392893 L1.7838613,23.4766348 L2.53845042,21.2393362 C2.17299565,20.741194 1.89673395,20.1885796 1.6970362,19.58623 C1.49497049,18.9870383 1.39393764,18.3499528 1.39393764,17.6891841 L1.39314832,17.6891841 Z" id="path-1"></path>
            </g>
        </g>
    </g>
</svg>