<?xml version="1.0" encoding="UTF-8"?>
<svg width="24px" height="29px" viewBox="0 0 24 29" version="1.1" xmlns="http://www.w3.org/2000/svg" xmlns:xlink="http://www.w3.org/1999/xlink">
    <!-- Generator: Sketch 49.1 (51147) - http://www.bohemiancoding.com/sketch -->
    <title>billing</title>
    <desc>Created with Sketch.</desc>
    <defs></defs>
    <g id="design***" stroke="none" stroke-width="1" fill="none" fill-rule="evenodd">
        <g id="Home_desk" transform="translate(-16.000000, -120.000000)" fill="#FFFFFF" fill-rule="nonzero">
            <g id="billing" transform="translate(16.000000, 120.000000)">
                <path d="M11.4455246,4.01281577 L17.9473803,4.01281577 L17.9473803,5.60364841 L11.4455246,5.60364841 L11.4455246,4.01281577 Z M15.4248121,8.62031886 L17.9447334,8.62031886 L17.9447334,10.2111515 L15.4248121,10.2111515 L15.4248121,8.62031886 Z M3.58488798,8.62031886 L9.68705026,8.62031886 L9.68705026,10.2111515 L3.58488798,10.2111515 L3.58488798,8.62031886 Z M14.2310259,12.0887399 L17.9447334,12.0887399 L17.9447334,13.6795725 L14.2310259,13.6795725 L14.2310259,12.0887399 Z M5.17572061,18.9408786 L8.88942805,18.9408786 L8.88942805,21.3284512 L5.17572061,21.3284512 L5.17572061,18.9408786 Z M3.58488798,12.0887399 L12.0772697,12.0887399 L12.0772697,13.6795725 L3.58488798,13.6795725 L3.58488798,12.0887399 Z M16.8524146,15.2624643 C20.3958332,15.2624643 23.3154479,18.4000132 23.3128009,21.7502027 C23.3128009,25.3042093 20.1858398,28.2352941 16.8524146,28.2352941 C13.2048815,28.2352941 10.3867343,25.0950981 10.3867343,21.7475557 C10.3867343,18.4000132 13.2048815,15.2624643 16.8524146,15.2624643 Z M16.8524146,26.8756307 L16.8515322,26.8756307 C19.7693822,26.8756307 21.9584314,24.6804052 21.9584314,21.7502027 C21.9584314,18.8200001 19.7667353,16.6247746 16.8524146,16.6247746 C13.9319176,16.6247746 11.7402213,18.8200001 11.7402213,21.7502027 C11.7402213,24.6804052 13.9327999,26.8756307 16.8524146,26.8756307 Z M1.51671731,23.931311 L1.51671731,23.9339579 L9.66146273,23.9339579 C9.78498833,24.4739411 9.96762974,24.9901014 10.196152,25.4806744 L0.899089553,25.4806744 C0.402340362,25.4806744 0,25.078334 0,24.5815848 L0,0.899089553 C0,0.402340362 0.402340362,0 0.899089553,0 L20.0649613,0 C20.5617104,0 20.9640508,0.402340362 20.9640508,0.899089553 L20.9640508,15.2589349 C20.5034768,15.0136485 20.0155509,14.8151253 19.5082139,14.6633653 L19.5082139,1.52818753 L1.51671731,1.52818753 L1.51671731,23.931311 Z M18.9565,22.614 C18.9565,23.328 18.4315,23.944 17.3325,24.056 L17.3325,24.84 L16.7585,24.84 L16.7585,24.063 C16.0725,24.021 15.4075,23.797 15.0435,23.482 L15.3585,22.775 C15.7015,23.055 16.2265,23.258 16.7585,23.307 L16.7585,21.907 C15.9815,21.718 15.1485,21.466 15.1485,20.493 C15.1485,19.779 15.6665,19.156 16.7585,19.051 L16.7585,18.26 L17.3325,18.26 L17.3325,19.037 C17.8505,19.065 18.3755,19.219 18.7535,19.464 L18.4665,20.171 C18.0955,19.954 17.7035,19.835 17.3325,19.793 L17.3325,21.207 C18.1095,21.396 18.9565,21.641 18.9565,22.614 Z M16.0515,20.451 C16.0515,20.787 16.3525,20.941 16.7585,21.06 L16.7585,19.814 C16.2615,19.891 16.0515,20.143 16.0515,20.451 Z M17.3325,23.293 C17.8435,23.216 18.0605,22.978 18.0605,22.677 C18.0605,22.334 17.7525,22.173 17.3325,22.054 L17.3325,23.293 Z" id="path-1"></path>
            </g>
        </g>
    </g>
</svg>