<?xml version="1.0" encoding="UTF-8"?>
<svg width="28px" height="21px" viewBox="0 0 28 21" version="1.1" xmlns="http://www.w3.org/2000/svg" xmlns:xlink="http://www.w3.org/1999/xlink">
    <!-- Generator: Sketch 49.1 (51147) - http://www.bohemiancoding.com/sketch -->
    <title>postal-card</title>
    <desc>Created with Sketch.</desc>
    <defs></defs>
    <g id="design***" stroke="none" stroke-width="1" fill="none" fill-rule="evenodd">
        <g id="Home_desk" transform="translate(-14.000000, -350.000000)" fill="#FFFFFF" fill-rule="nonzero">
            <g id="Group" transform="translate(0.000000, 53.000000)">
                <g id="postal-card" transform="translate(14.000000, 297.000000)">
                    <path d="M13.2269617,12.3862391 C13.2269617,12.7546602 12.95922,13.0520833 12.6197306,13.0520833 L4.18761914,13.0520833 C3.85162964,13.0520833 3.58038811,12.7584978 3.58038811,12.3862391 C3.58038811,12.0139802 3.84812974,11.7203947 4.18761914,11.7203947 L12.5794819,11.7203947 C12.9242211,11.6753015 13.2278366,11.9688871 13.2278366,12.3862391 L13.2269617,12.3862391 Z M12.5786069,4.5841557 L4.18674417,4.5841557 C3.85075467,4.5841557 3.57951314,4.87774124 3.57951314,5.25000001 C3.57951314,5.62225878 3.84725477,5.9158443 4.18674417,5.9158443 L12.6188556,5.9158443 C12.9548451,5.9158443 13.2260867,5.62225878 13.2260867,5.25000001 C13.2260867,4.83360745 12.9224712,4.5390625 12.5777319,4.5841557 L12.5786069,4.5841557 Z M12.5786069,8.12253297 L4.18674417,8.12253297 C3.85075467,8.12253297 3.57951314,8.41611846 3.57951314,8.7883772 C3.57951314,9.16063594 3.84725477,9.45422143 4.18674417,9.45422143 L12.6188556,9.45422143 C12.9548451,9.45422143 13.2260867,9.16063594 13.2260867,8.7883772 C13.2260867,8.37198469 12.9224712,8.07743974 12.5777319,8.12253297 L12.5786069,8.12253297 Z M7.90012812,15.3575933 L4.17011969,15.3575933 C3.83413019,15.3575933 3.56288866,15.6511787 3.56288866,16.0234375 C3.56288866,16.3956962 3.83063029,16.6892819 4.11237149,16.6892819 L7.84150496,16.6892819 C8.23524265,16.6892819 8.5056092,16.3956962 8.5056092,16.0234375 C8.50298428,15.6521382 8.19936877,15.3575933 7.89837818,15.3575933 L7.90012812,15.3575933 Z M28,2.48876097 L28,18.5112391 C28,19.8841831 26.9885316,21 25.730321,21 L2.26967908,21 C1.01759321,21 0,19.8908992 0,18.5112391 L0,2.48876097 C0,1.11581689 1.01759321,0 2.26967908,0 L25.730321,0 C26.9824068,0 28,1.11485746 28,2.48876097 Z M25.730321,19.1406251 C26.0558108,19.1406251 26.3104278,18.8470394 26.3104278,18.4719025 L26.3104278,7.95079489 L26.3156776,7.47108004 L26.3156776,6.38596491 L26.3104278,6.38596491 L26.3104278,2.48780154 C26.3104278,2.13665023 26.0505609,1.852659 25.730321,1.852659 L2.26967908,1.852659 C1.95293897,1.852659 1.69569701,2.13760966 1.69569701,2.48780154 L1.69569701,9.32949565 L1.69044718,9.80921051 L1.69044718,18.504523 C1.69044718,18.8556744 1.95031406,19.1406251 2.27317896,19.1406251 L25.730321,19.1406251 Z M15.8020062,4.87198465 L15.8020062,16.4724507 C15.8020062,16.8408718 16.0697478,17.1382949 16.4092372,17.1382949 C16.7487265,17.1382949 17.0164683,16.8447094 17.0164683,16.4724507 L17.0164683,4.82785088 C17.0164683,4.45942983 16.7487265,4.16200659 16.4092372,4.16200659 C16.0321239,4.16488488 15.7608825,4.49780702 15.8020062,4.87294408 L15.8020062,4.87198465 Z M24.3391144,12.1636513 L19.009656,12.1636513 C18.7690384,12.1636513 18.5721696,11.9477796 18.5721696,11.6839365 L18.5721696,4.54769737 C18.5721696,4.28385418 18.7690384,4.06798246 19.009656,4.06798246 L24.3391144,4.06798246 C24.5797318,4.06798246 24.7766008,4.28385418 24.7766008,4.54769737 L24.7766008,11.6839365 C24.7766008,11.9506579 24.5797318,12.1636513 24.3391144,12.1636513 Z M19.4471423,11.2042215 L23.9016281,11.2042215 L23.9016281,5.02741229 L19.4471423,5.02741229 L19.4471423,11.2042215 Z" id="path-1"></path>
                </g>
            </g>
        </g>
    </g>
</svg>