<?xml version="1.0" encoding="UTF-8"?>
<svg width="19px" height="20px" viewBox="0 0 19 20" version="1.1" xmlns="http://www.w3.org/2000/svg" xmlns:xlink="http://www.w3.org/1999/xlink">
    <!-- Generator: Sketch 49.1 (51147) - http://www.bohemiancoding.com/sketch -->
    <title>logout</title>
    <desc>Created with Sketch.</desc>
    <defs>
        <path d="M13,11.4748404 C13,11.9350777 12.626904,12.3081737 12.1666667,12.3081737 C11.7064294,12.3081737 11.3333333,11.9350777 11.3333333,11.4748404 L11.3333333,2.83333333 C11.3333333,2.37309604 11.7064294,2 12.1666667,2 C12.626904,2 13,2.37309604 13,2.83333333 L13,11.4748404 Z M5.68485451,6.35152117 C6.01029142,6.02608426 6.5379289,6.02608426 6.86336581,6.35152117 C7.18880272,6.67695808 7.18880272,7.20459556 6.86336581,7.53003247 C3.93443362,10.4589647 3.93443362,15.207702 6.86336581,18.1366342 C9.792298,21.0655664 14.5410353,21.0655664 17.4699675,18.1366342 C20.3988997,15.207702 20.3988997,10.4589647 17.4699675,7.53003247 C17.1445306,7.20459556 17.1445306,6.67695808 17.4699675,6.35152117 C17.7954044,6.02608426 18.3230419,6.02608426 18.6484788,6.35152117 C22.2282848,9.93132718 22.2282848,15.7353395 18.6484788,19.3151455 C15.0686728,22.8949515 9.26466051,22.8949515 5.68485451,19.3151455 C2.1050485,15.7353395 2.1050485,9.93132718 5.68485451,6.35152117 Z" id="path-1"></path>
    </defs>
    <g id="Symbols" stroke="none" stroke-width="1" fill="none" fill-rule="evenodd">
        <g id="icons/navigation/logout" transform="translate(-3.000000, -2.000000)">
            <mask id="mask-2" fill="white">
                <use xlink:href="#path-1"></use>
            </mask>
            <use id="logout" fill="#FFFFFF" fill-rule="nonzero" xlink:href="#path-1"></use>
        </g>
    </g>
</svg>