<?xml version="1.0" encoding="utf-8"?>
<!-- Generator: Adobe Illustrator 21.0.0, SVG Export Plug-In . SVG Version: 6.00 Build 0)  -->
<svg version="1.1" id="Layer_1" xmlns="http://www.w3.org/2000/svg" xmlns:xlink="http://www.w3.org/1999/xlink" x="0px" y="0px"
	 viewBox="0 0 13 21" style="enable-background:new 0 0 13 21;" xml:space="preserve">
<style type="text/css">
	.st0{fill:#FFFFFF;}
</style>
<title>arrow-left</title>
<desc>Created with Sketch.</desc>
<g id="design_x2A__x2A__x2A_">
	<g id="Home_desk" transform="translate(-95.000000, -108.000000)">
		<g id="arrow-left" transform="translate(94.000000, 108.000000)">
			
				<g id="path-1" transform="translate(7.248301, 10.251699) rotate(90.000000) translate(-7.248301, -10.251699) translate(-2.751699, 3.751699)">
				<path class="st0" d="M3.3,0.3l6.3,6.3c0.2,0.2,0.5,0.2,0.7,0l6.3-6.3c0.4-0.4,1.2-0.4,1.6,0l1.4,1.4c0.4,0.4,0.4,1.2,0,1.6
					l-8.9,8.9c-0.4,0.4-1.2,0.4-1.6,0L0.3,3.3c-0.4-0.4-0.4-1.2,0-1.6l1.4-1.4C2.1-0.1,2.9-0.1,3.3,0.3L3.3,0.3z"/>
			</g>
		</g>
	</g>
</g>
</svg>
