<?xml version="1.0" encoding="UTF-8"?>
<svg width="17px" height="17px" viewBox="0 0 17 17" version="1.1" xmlns="http://www.w3.org/2000/svg" xmlns:xlink="http://www.w3.org/1999/xlink">
    <!-- Generator: Sketch 49.1 (51147) - http://www.bohemiancoding.com/sketch -->
    <title>noun_Facebook_2045907</title>
    <desc>Created with Sketch.</desc>
    <defs></defs>
    <g id="design-desk***" stroke="none" stroke-width="1" fill="none" fill-rule="evenodd">
        <g id="galeria-01" transform="translate(-321.000000, -326.000000)" fill="#0079C8">
            <g id="Group-11" transform="translate(313.000000, 279.000000)">
                <g id="Group-8" transform="translate(9.000000, 38.000000)">
                    <g id="noun_Facebook_2045907" transform="translate(0.000000, 10.000000)">
                        <g id="Group" transform="translate(0.204301, 0.109732)">
                            <path d="M7.39784946,0.0623105376 C3.31416774,0.0623105376 0,3.37647484 0,7.46016 C0,11.5438417 3.31416774,14.8580095 7.39784946,14.8580095 C11.4815312,14.8580095 14.7956989,11.5438417 14.7956989,7.46016 C14.7956989,3.37647484 11.4815312,0.0623105376 7.39784946,0.0623105376 Z M7.39784946,0.406396559 C11.2955732,0.406396559 14.4516129,3.56243269 14.4516129,7.46016 C14.4516129,11.3578804 11.2955732,14.5139234 7.39784946,14.5139234 C3.50012576,14.5139234 0.344086022,11.3578804 0.344086022,7.46016 C0.344086022,3.56243269 3.50012576,0.406396559 7.39784946,0.406396559 Z" id="Shape" stroke="#0079C8" stroke-width="0.5" fill-rule="nonzero"></path>
                            <path d="M8.43010753,2.6429557 C7.81634632,2.6429557 7.21979372,2.8213643 6.7688172,3.19671914 C6.31784069,3.57207398 6.02150538,4.14916989 6.02150538,4.87951484 L6.02150538,6.25585892 L4.98924731,6.25585892 C4.89423452,6.25586842 4.8172138,6.33288914 4.8172043,6.42790194 L4.8172043,8.16446108 C4.8172138,8.25947387 4.89423452,8.33649459 4.98924731,8.33650409 L6.02150538,8.32037505 L6.02150538,12.7934933 C6.02151488,12.8885061 6.09853559,12.9655268 6.19354839,12.9655363 L7.91397849,12.9655363 C8.00899129,12.9655268 8.08601201,12.8885061 8.08602151,12.7934933 L8.08602151,8.32037505 L9.6344086,8.32037505 C9.7294214,8.32036555 9.80644211,8.24334484 9.80645161,8.14833204 L9.80645161,6.42790194 C9.80644211,6.33288914 9.7294214,6.25586842 9.6344086,6.25585892 L8.08602151,6.25585892 L8.08602151,4.70747183 L9.6344086,4.70747183 C9.7294214,4.70746233 9.80644211,4.63044161 9.80645161,4.53542882 L9.80645161,2.81499871 C9.80644211,2.71998591 9.7294214,2.6429652 9.6344086,2.6429557 L8.43010753,2.6429557 Z" id="Path"></path>
                        </g>
                    </g>
                </g>
            </g>
        </g>
    </g>
</svg>