<?xml version="1.0" encoding="UTF-8"?>
<svg width="16px" height="16px" viewBox="0 0 16 16" version="1.1" xmlns="http://www.w3.org/2000/svg" xmlns:xlink="http://www.w3.org/1999/xlink">
    <!-- Generator: Sketch 49.1 (51147) - http://www.bohemiancoding.com/sketch -->
    <title>linear</title>
    <desc>Created with Sketch.</desc>
    <defs></defs>
    <g id="design-desk***" stroke="none" stroke-width="1" fill="none" fill-rule="evenodd">
        <g id="info_noticias-interior_apoyolegal" transform="translate(-142.000000, -267.000000)" fill="#0079C8" fill-rule="nonzero">
            <g id="Group-3" transform="translate(142.000000, 221.000000)">
                <g id="linear" transform="translate(0.000000, 46.000000)">
                    <path d="M10.99296,5.51248 C11.16256,5.74048 11.28416,5.98768 11.35936,6.24848 C11.43376,6.51248 11.46656,6.76528 11.45696,7.01008 C11.43216,7.15808 11.37856,7.25968 11.30576,7.31728 C11.21696,7.37568 11.12176,7.39248 11.02336,7.37568 C10.92176,7.35648 10.84016,7.30848 10.78176,7.22608 C10.74736,7.17408 10.72416,7.09728 10.71456,7.00048 C10.71776,6.88368 10.70416,6.73328 10.67456,6.55088 C10.64416,6.36768 10.55056,6.16448 10.39936,5.94288 C10.24416,5.72048 10.08816,5.56608 9.92576,5.47888 C9.76416,5.39408 9.62816,5.32688 9.51776,5.28128 L9.51696,5.28048 C9.43136,5.24368 9.36896,5.19648 9.33776,5.13888 C9.27616,5.05328 9.25616,4.95888 9.27616,4.85728 C9.29616,4.75888 9.34656,4.67888 9.43056,4.61648 C9.50496,4.56368 9.61536,4.55008 9.76416,4.57648 C9.99536,4.65568 10.21936,4.77328 10.43616,4.92928 C10.64816,5.08768 10.83616,5.27968 10.99296,5.51248 Z M15.95704,5.75856 C16.00824,6.19456 16.01304,6.58976 15.97304,6.93216 C15.92904,7.29616 15.87304,7.57936 15.80104,7.79776 C15.70424,8.00576 15.61864,8.08096 15.57864,8.10736 C15.48024,8.17776 15.38504,8.20896 15.27864,8.20896 L15.27864,8.20816 C15.24424,8.20816 15.21064,8.20496 15.17384,8.19856 C15.02424,8.17216 14.91464,8.10176 14.84264,7.98336 C14.75704,7.86736 14.73864,7.69216 14.78024,7.45536 C14.86984,7.19696 14.91784,6.89376 14.92744,6.54816 C14.93224,6.21376 14.89944,5.88176 14.82744,5.52976 C14.74904,5.17856 14.62744,4.81776 14.46344,4.45456 C14.31304,4.10896 14.11144,3.75056 13.84744,3.35616 L13.81864,3.31056 L13.80824,3.30896 C13.56024,2.95296 13.29624,2.64016 13.02584,2.37936 C12.74024,2.10336 12.44264,1.86416 12.14104,1.66736 C11.82904,1.46736 11.52104,1.32016 11.22424,1.22656 C10.90424,1.12656 10.61304,1.07776 10.33544,1.07776 C10.04584,1.02496 9.92424,0.93136 9.87704,0.86256 C9.78664,0.73776 9.75784,0.60656 9.78344,0.45776 C9.80984,0.31216 9.88344,0.19856 10.00824,0.11056 C10.06424,0.06736 10.17224,0.01696 10.39064,0.00016 C10.63224,0.00496 10.92264,0.04656 11.24584,0.12656 C11.57864,0.20496 11.94584,0.34656 12.34024,0.55136 C12.73864,0.75856 13.13224,1.02976 13.54264,1.38576 C13.95544,1.74096 14.35704,2.19696 14.73544,2.74416 C15.12264,3.29296 15.41144,3.82736 15.59624,4.33056 C15.77864,4.83856 15.90104,5.31936 15.95704,5.75856 Z M12.74144,4.07776 C13.03344,4.46816 13.24464,4.89056 13.37264,5.33936 C13.49904,5.78736 13.55584,6.22656 13.53904,6.64096 C13.50144,6.84816 13.42624,7.00496 13.31904,7.08736 C13.23104,7.14256 13.13264,7.17376 13.02704,7.17376 C12.99264,7.17376 12.95744,7.17056 12.92144,7.16416 C12.76944,7.13776 12.65744,7.06736 12.57584,6.95136 C12.54464,6.90336 12.49904,6.80336 12.48064,6.61216 C12.48544,6.41936 12.46144,6.15136 12.40864,5.81216 C12.35584,5.47696 12.18944,5.10976 11.90544,4.69056 C11.61664,4.27776 11.33024,3.99856 11.02864,3.83376 C10.70384,3.66176 10.47904,3.55456 10.29584,3.48096 C10.13584,3.41056 10.06784,3.33776 10.03984,3.28896 C9.94544,3.15776 9.91584,3.02656 9.94544,2.88096 C9.97504,2.73696 10.04704,2.62256 10.16944,2.53216 C10.23344,2.48496 10.32704,2.46176 10.44544,2.46176 C10.50944,2.46176 10.58064,2.46816 10.65824,2.48176 C11.03904,2.61536 11.41664,2.81296 11.79184,3.08256 C12.15984,3.35776 12.48064,3.69216 12.74144,4.07776 Z M9.52857904,11.6100109 L10.7493983,10.3882328 C10.930651,10.2068378 11.1893171,10.1260194 11.4414975,10.1719914 L15.3458699,10.8837513 C15.7149988,10.9510427 15.9841264,11.2715578 15.9867872,11.6470459 C15.9952262,12.8379511 16.0009114,13.6 15.9999768,14.4 C16.0009114,14.4 16.0009114,16 14.3690341,16 C6.52432608,15.6072963 0,9.48846032 0,1.58148772 C0,1.57646484 0,0 1.6,0 L4.34913242,0 C4.72684355,0 5.05040864,0.270555384 5.11756515,0.642540304 L5.82299679,4.5499789 C5.86850169,4.80203395 5.78769914,5.06040602 5.6067257,5.24152159 L4.3859044,6.4633016 C5.58819979,8.61977536 7.37379544,10.4067733 9.52857904,11.6100109 Z M15.2,11.6424874 L11.2928132,10.932601 L9.6682584,12.5584598 C6.98211344,11.204473 4.79071346,9.01131408 3.43781258,6.32301299 L5.06236736,4.69715424 L4.35880462,0.8 C3.05293487,0.8 2.13333334,0.8 1.6,0.8 C1.06666666,0.8 0.8,1.06666666 0.8,1.6 C0.8,9.45498216 7.41355104,14.8508073 14.3889488,15.1999996 C14.3996354,15.2005346 15.2131582,15.1999996 15.2,14.4 C15.1916078,13.8897669 15.2051504,12.3693276 15.2,11.6424874 Z" id="path-1"></path>
                </g>
            </g>
        </g>
    </g>
</svg>