<?xml version="1.0" encoding="UTF-8"?>
<svg width="20px" height="20px" viewBox="0 0 20 20" version="1.1" xmlns="http://www.w3.org/2000/svg" xmlns:xlink="http://www.w3.org/1999/xlink">
    <!-- Generator: Sketch 49.1 (51147) - http://www.bohemiancoding.com/sketch -->
    <title>user-solid</title>
    <desc>Created with Sketch.</desc>
    <defs>
        <path d="M22,20 C22,21.1045695 21.1045695,22 20,22 C18.8954305,22 5.1045695,22 4,22 C2.8954305,22 2,21.1045695 2,20 L2,17.5 C2,15.0147186 6.4771525,13 12,13 C17.5228475,13 22,15.0147186 22,17.5 L22,20 Z M12,12 C14.7614237,12 17,9.76142375 17,7 C17,4.23857625 14.7614237,2 12,2 C9.23857625,2 7,4.23857625 7,7 C7,9.76142375 9.23857625,12 12,12 Z" id="path-1"></path>
    </defs>
    <g id="Symbols" stroke="none" stroke-width="1" fill="none" fill-rule="evenodd">
        <g id="icons/misc/user-solid" transform="translate(-2.000000, -2.000000)">
            <mask id="mask-2" fill="white">
                <use xlink:href="#path-1"></use>
            </mask>
            <use id="user-solid" fill="#FFFFFF" fill-rule="nonzero" xlink:href="#path-1"></use>
        </g>
    </g>
</svg>