<?xml version="1.0" encoding="UTF-8"?>
<svg width="10px" height="11px" viewBox="0 0 10 11" version="1.1" xmlns="http://www.w3.org/2000/svg" xmlns:xlink="http://www.w3.org/1999/xlink">
    <!-- Generator: Sketch 49.1 (51147) - http://www.bohemiancoding.com/sketch -->
    <title>linear</title>
    <desc>Created with Sketch.</desc>
    <defs></defs>
    <g id="design-desk***" stroke="none" stroke-width="1" fill="none" fill-rule="evenodd">
        <g id="caso-clinico_01" transform="translate(-880.000000, -208.000000)" fill="#0079C8" fill-rule="nonzero">
            <g id="Group-9" transform="translate(869.000000, 206.000000)">
                <g id="linear" transform="translate(11.000000, 2.000000)">
                    <path d="M5.29118385,7.95482224 C4.76988998,7.95482224 4.28188485,7.85996693 3.8230502,7.66791826 C3.36524508,7.47787359 2.96509459,7.21802341 2.62397144,6.88936971 C2.28181874,6.55837805 2.0137934,6.17561674 1.81543407,5.73607582 C1.61810428,5.29887285 1.51961098,4.82693416 1.51961098,4.3249357 C1.51961098,3.82093323 1.61947701,3.34899454 1.81543407,2.90845162 C2.0137934,2.46590472 2.28284829,2.08080542 2.62397144,1.75081573 C2.96509459,1.42082605 3.3649019,1.15997387 3.8230502,0.9702632 C4.28119852,0.780552532 4.76988998,0.685363196 5.29118385,0.685363196 C5.80904584,0.685363196 6.29396235,0.780218535 6.75176749,0.9702632 C7.20854306,1.16030787 7.60972306,1.42116004 7.94981669,1.75081573 C8.29196938,2.07946943 8.56205379,2.46490273 8.75835407,2.90845162 C8.95568382,3.34999653 9.05452032,3.82059923 9.05452032,4.3249357 C9.05452032,4.72372891 8.99137479,5.10348426 8.86577006,5.46353371 C8.74016539,5.82658918 8.56445608,6.15758084 8.3358967,6.45617478 L8.81189047,7.79951334 L7.35645456,7.35696645 C7.06577923,7.54901512 6.74078565,7.6963081 6.39108294,7.79951334 C6.04138023,7.90271863 5.67692067,7.95515625 5.29084066,7.95515625 L5.29118385,7.95482224 Z M5.29118385,0.000333997409 C4.66899444,0.000333997409 4.08798692,0.111889217 3.54404303,0.337337634 C3.00456055,0.563788048 2.53062587,0.873737879 2.12189581,1.26618513 C1.71419531,1.65963437 1.39366309,2.11988315 1.15995599,2.64392548 C0.926248878,3.16997179 0.809223733,3.73142185 0.809223733,4.32526971 C0.809223733,4.9211215 0.926248878,5.48290559 1.15995599,6.00661393 C1.39366309,6.53266023 1.71453849,6.98890102 2.12189581,7.37901029 C2.52925314,7.76911956 3.003531,8.07940341 3.54404303,8.30685582 C4.08764372,8.53430823 4.66796486,8.64820141 5.29118385,8.64820141 C5.68138206,8.64820141 6.06025524,8.60010574 6.4226557,8.50525043 C6.78848799,8.41039507 7.13269977,8.27980197 7.45632064,8.11180118 L9.93478277,8.87364982 L9.1262454,6.55136409 C9.33215476,6.22872237 9.49104816,5.87802482 9.60223917,5.49927145 C9.71686205,5.12252213 9.77280075,4.72907288 9.77280075,4.3249357 C9.77280075,3.73108786 9.65577562,3.16963779 9.41897989,2.64359147 C9.18184096,2.11954915 8.86130872,1.65930037 8.45704003,1.26585113 C8.05483045,0.873403882 7.57986621,0.563454051 7.03489279,0.337003637 C6.49129216,0.11155522 5.90994144,0 5.29118385,0 L5.29118385,0.000333997409 Z M0.605716661,7.48388557 C0.605716661,7.13719596 0.670234924,6.81188229 0.798928262,6.5069424 L0.755000935,6.40874707 C0.679844025,6.24275028 0.617728036,6.07174348 0.5662507,5.89639468 C0.485946055,6.02364781 0.41593688,6.15724688 0.353820891,6.30019786 C0.190809327,6.6685973 0.111534228,7.0643845 0.111534228,7.48388557 C0.111534228,7.76878556 0.150313825,8.0453356 0.228559373,8.31052975 C0.306804926,8.57872991 0.417309608,8.82622217 0.556641599,9.05367457 L0,10.6882591 L1.70836121,10.1508569 C1.92937058,10.270762 2.16616632,10.3616094 2.41943482,10.4294109 C2.67030104,10.4972125 2.93009,10.5296102 3.19914488,10.5296102 C3.62812268,10.5296102 4.02930273,10.4501188 4.40234185,10.2884639 C4.7757241,10.128813 5.10174726,9.91071257 5.38349985,9.6351645 C5.59490013,9.42841995 5.77060944,9.19562358 5.91543237,8.93477138 C5.70300251,8.98587301 5.48542497,9.01927281 5.2633861,9.0369747 C5.19372007,9.12682005 5.11856317,9.21132148 5.03722896,9.29148091 C4.80249233,9.52427728 4.5265738,9.706974 4.21153249,9.84157504 C3.89614803,9.97517411 3.55948623,10.0429756 3.20017443,10.0429756 C2.93523773,10.0429756 2.68437151,10.0052339 2.44208485,9.93242241 C2.20185728,9.85927693 1.97878882,9.75406764 1.77837039,9.62046857 L0.775591871,9.93242241 L1.1036741,8.98587301 C0.944780716,8.77512053 0.824666933,8.54132213 0.737841825,8.28648191 C0.649987171,8.03297773 0.606059843,7.76344159 0.606059843,7.48388557 L0.605716661,7.48388557 Z" id="path-1"></path>
                </g>
            </g>
        </g>
    </g>
</svg>