<?xml version="1.0" encoding="UTF-8"?>
<svg width="22px" height="15px" viewBox="0 0 22 15" version="1.1" xmlns="http://www.w3.org/2000/svg" xmlns:xlink="http://www.w3.org/1999/xlink">
    <!-- Generator: Sketch 49.1 (51147) - http://www.bohemiancoding.com/sketch -->
    <title>Group@2x</title>
    <desc>Created with Sketch.</desc>
    <defs>
        <path d="M10.1537688,5.23448605 C10.1537688,4.69514466 9.80816535,4.19580078 9.30819651,4.04331028 C9.53880714,3.96706504 9.76941777,3.92831745 9.99940344,3.92831745 C11.4211898,3.92831745 12.5361203,5.08262051 12.5361203,6.46503436 C12.5361203,7.88682075 11.3818173,9.00175126 9.99940344,9.00175126 C8.61448975,9.00175126 7.46268653,7.8474482 7.46268653,6.46503436 C7.46268653,6.1194309 7.53893178,5.77382744 7.65392461,5.50446922 C7.76891744,6.08068331 8.26888628,6.5044069 8.88447292,6.5044069 C9.57567984,6.5044069 10.1537688,5.92631793 10.1537688,5.23511101 L10.1537688,5.23448605 Z M11.594929,12.8027644 L11.7805424,12.7715163 L11.8174151,12.7321438 C14.7291087,12.1678039 17.5045607,10.3316684 19.6413025,7.55496643 C20.1137731,6.9650032 20.1200227,6.10755664 19.6569266,5.47134629 L19.6531768,5.46759652 C17.5383086,2.61402436 14.7453577,0.743515934 11.7730429,0.186675638 L11.7142966,0.147303092 L11.594929,0.127929299 C11.0737115,0.0398097907 10.5424946,-0.0201864702 10.0250268,0.00668685503 L9.97627988,0.00668685503 C9.46256189,-0.0208114312 8.92759523,0.0398097907 8.40637772,0.127929299 L8.28326039,0.147303092 L8.22638893,0.184175794 C5.25407417,0.744765856 2.46112324,2.61589924 0.343755195,5.47322117 C-0.119340944,6.11005648 -0.113091333,6.96750304 0.353754572,7.54934178 C2.49612106,10.3341682 5.2696982,12.1703038 8.18326662,12.7327687 L8.22013932,12.7721413 L8.40575276,12.8033893 C8.92697027,12.889009 9.46068701,12.9477553 9.97627988,12.9246318 L10.0250268,12.9246318 C10.0544,12.9265067 10.0856481,12.9265067 10.1150212,12.9265067 C10.6049907,12.9265067 11.1030847,12.8852592 11.595554,12.8033893 L11.594929,12.8027644 Z M8.74573157,11.6622105 L8.56636775,11.6309624 C5.87091073,11.1603667 3.27982221,9.45922275 1.26182298,6.83626122 C1.11745698,6.65627244 1.12495651,6.36191578 1.27557212,6.1563036 C3.24419943,3.49646936 5.83216315,1.77157686 8.56199302,1.29910631 L8.7082339,1.27348291 L8.74510661,1.24223485 C9.123833,1.18723828 9.52443304,1.15849007 9.91315881,1.16036496 L10.0031532,1.16223984 L10.1125214,1.15849007 C10.4893729,1.15849007 10.872474,1.18598836 11.2493255,1.24223485 L11.2861982,1.27348291 L11.4324391,1.29910631 C14.1666437,1.77157686 16.7546074,3.49459448 18.7232347,6.15255383 C18.8757252,6.36379067 18.8813499,6.65627244 18.7307343,6.84376075 C16.7189847,9.45859779 14.1272712,11.1578669 11.4324391,11.6303374 L11.2524503,11.6615855 L11.2230772,11.6909587 C10.8599748,11.7434554 10.4924977,11.7690788 10.1056468,11.7690788 C10.0981473,11.7690788 10.0900228,11.7690788 10.0818983,11.7690788 L9.9919039,11.7672039 L9.88253572,11.7709537 C9.51505862,11.7709537 9.14258183,11.7434554 8.77322985,11.6909587 L8.74385668,11.6615855 L8.74573157,11.6622105 Z M11.1124591,1.12349225 C11.1105842,1.12161737 11.1087093,1.11974249 11.1087093,1.11974249 L11.1124591,1.12349225 Z M11.9330329,0.31291777 L11.9255334,0.304793276 C11.9274083,0.30666816 11.931158,0.310417926 11.9330329,0.31291777 Z M10.0187772,11.4940959 C12.7454823,11.4003518 14.8815992,9.19173942 14.8815992,6.46503436 C14.8815992,3.73832929 12.7448573,1.52971694 10.0187772,1.43597278 L9.97940468,1.43597278 C7.25269962,1.52971694 5.11658274,3.73832929 5.11658274,6.46503436 C5.11658274,9.19173942 7.25332458,11.4003518 9.97940468,11.4940959 L10.0187772,11.4940959 Z M13.7297959,6.46503436 C13.7297959,8.56052876 12.093023,10.257923 9.99940344,10.3397929 C7.90578391,10.257923 6.26901092,8.55865388 6.26901092,6.46503436 C6.26901092,4.37141484 7.90578391,2.67214574 9.99940344,2.59027584 C12.093023,2.67214574 13.7297959,4.37141484 13.7297959,6.46503436 Z" id="path-1"></path>
    </defs>
    <g id="Symbols" stroke="none" stroke-width="1" fill="none" fill-rule="evenodd">
        <g id="icons/misc/eye" transform="translate(-1.000000, -5.000000)">
            <g id="Group" transform="translate(2.000000, 6.000000)">
                <mask id="mask-2" fill="white">
                    <use xlink:href="#path-1"></use>
                </mask>
                <use id="eye" fill="#FFFFFF" fill-rule="nonzero" xlink:href="#path-1"></use>
                <path d="M0.5,12.5 L19.5,0.5" id="Line" stroke="#FFFFFF" stroke-width="1.3" stroke-linecap="round"></path>
            </g>
        </g>
    </g>
</svg>