<?xml version="1.0" encoding="UTF-8"?>
<svg width="9px" height="14px" viewBox="0 0 9 14" version="1.1" xmlns="http://www.w3.org/2000/svg" xmlns:xlink="http://www.w3.org/1999/xlink">
    <!-- Generator: Sketch 49.1 (51147) - http://www.bohemiancoding.com/sketch -->
    <title>ordenation</title>
    <desc>Created with Sketch.</desc>
    <defs></defs>
    <g id="design-desk***" stroke="none" stroke-width="1" fill="none" fill-rule="evenodd">
        <g id="subirdoc-01" transform="translate(-218.000000, -320.000000)" fill="#0079C8" fill-rule="nonzero">
            <g id="ordenation" transform="translate(218.000000, 319.000000)">
                <g id="abandom" transform="translate(4.507707, 7.881182) rotate(-90.000000) translate(-4.507707, -7.881182) translate(-2.492293, 3.381182)">
                    <path d="M7.90937999,7.42370346 L10.7164881,4.60791412 C10.8059555,4.51847107 10.8059555,4.37264001 10.7164881,4.28319696 L7.90937999,1.46546321 C7.7132186,1.26852185 7.7132186,0.949915714 7.91021354,0.752696575 L8.5153686,0.147706025 C8.71236349,-0.0492353417 9.03188982,-0.0492353417 9.2291626,0.147706025 L13.1701723,4.08764446 C13.3671673,4.28458585 13.3671673,4.60402529 13.1701723,4.8012444 L9.2291626,8.74118285 C9.03216765,8.93812424 8.71264132,8.93812424 8.5153686,8.74118285 L7.91021354,8.13619229 C7.7132186,7.93925096 7.7132186,7.62064479 7.90937999,7.42342568 L7.90937999,7.42370346 Z M2.60143043,4.28097479 C2.51196306,4.37041785 2.51196306,4.5162489 2.60143043,4.6056919 L5.40853855,7.42342568 C5.60469993,7.62036707 5.60469993,7.93897318 5.40770501,8.13619229 L4.80254995,8.74118285 C4.60555504,8.93812424 4.28602872,8.93812424 4.08875595,8.74118285 L0.147746189,4.8012444 C-0.0492487297,4.60430307 -0.0492487297,4.28486362 0.147746189,4.08764446 L4.08875595,0.147706025 C4.28575087,-0.0492353417 4.60527719,-0.0492353417 4.80254995,0.147706025 L5.40770501,0.752696575 C5.60469993,0.949637942 5.60469993,1.26824407 5.40853855,1.46546321 L2.60143043,4.28097479 Z M6.65125188,5.55555557 C6.03760215,5.55555557 5.54014075,5.05809418 5.54014075,4.44444446 C5.54014075,3.83079474 6.03760215,3.33333334 6.65125188,3.33333334 C7.2649016,3.33333334 7.76236299,3.83079474 7.76236299,4.44444446 C7.76236299,5.05809418 7.2649016,5.55555557 6.65125188,5.55555557 Z" id="path-1"></path>
                </g>
            </g>
        </g>
    </g>
</svg>