<?xml version="1.0" encoding="UTF-8"?>
<svg width="20px" height="13px" viewBox="0 0 20 13" version="1.1" xmlns="http://www.w3.org/2000/svg" xmlns:xlink="http://www.w3.org/1999/xlink">
    <!-- Generator: Sketch 49.1 (51147) - http://www.bohemiancoding.com/sketch -->
    <title>eye</title>
    <desc>Created with Sketch.</desc>
    <defs></defs>
    <g id="design-desk***" stroke="none" stroke-width="1" fill="none" fill-rule="evenodd">
        <g id="honorarios_02" transform="translate(-1126.000000, -264.000000)" fill="#0079C8" fill-rule="nonzero">
            <g id="eye" transform="translate(1126.000000, 264.000000)">
                <path d="M10.1537688,5.234486 C10.1537688,4.6951447 9.8081654,4.1958008 9.3081965,4.0433103 C9.5388071,3.96706504 9.7694178,3.92831745 9.9994034,3.92831745 C11.4211898,3.92831745 12.5361203,5.0826205 12.5361203,6.4650344 C12.5361203,7.8868207 11.3818173,9.0017513 9.9994034,9.0017513 C8.6144897,9.0017513 7.46268653,7.8474482 7.46268653,6.4650344 C7.46268653,6.1194309 7.53893178,5.7738274 7.65392461,5.5044692 C7.76891744,6.0806833 8.2688863,6.5044069 8.8844729,6.5044069 C9.5756798,6.5044069 10.1537688,5.9263179 10.1537688,5.235111 L10.1537688,5.234486 Z M11.594929,12.8027644 L11.7805424,12.7715163 L11.8174151,12.7321438 C14.7291087,12.1678039 17.5045607,10.3316684 19.6413025,7.5549664 C20.1137731,6.9650032 20.1200227,6.1075566 19.6569266,5.4713463 L19.6531768,5.4675965 C17.5383086,2.61402436 14.7453577,0.74351593 11.7730429,0.18667564 L11.7142966,0.14730309 L11.594929,0.1279293 C11.0737115,0.03980979 10.5424946,-0.02018647 10.0250268,0.00668686 L9.9762799,0.00668686 C9.4625619,-0.02081143 8.9275952,0.03980979 8.4063777,0.1279293 L8.2832604,0.14730309 L8.2263889,0.18417579 C5.25407417,0.74476586 2.46112324,2.61589924 0.34375519,5.4732212 C-0.11934094,6.1100565 -0.11309133,6.967503 0.35375457,7.5493418 C2.49612106,10.3341682 5.2696982,12.1703038 8.1832666,12.7327687 L8.2201393,12.7721413 L8.4057528,12.8033893 C8.9269703,12.889009 9.460687,12.9477553 9.9762799,12.9246318 L10.0250268,12.9246318 C10.0544,12.9265067 10.0856481,12.9265067 10.1150212,12.9265067 C10.6049907,12.9265067 11.1030847,12.8852592 11.595554,12.8033893 L11.594929,12.8027644 Z M8.7457316,11.6622105 L8.5663677,11.6309624 C5.87091073,11.1603667 3.27982221,9.4592228 1.26182298,6.8362612 C1.11745698,6.6562724 1.12495651,6.3619158 1.27557212,6.1563036 C3.24419943,3.49646936 5.83216315,1.77157686 8.561993,1.29910631 L8.7082339,1.27348291 L8.7451066,1.24223485 C9.123833,1.18723828 9.524433,1.15849007 9.9131588,1.16036496 L10.0031532,1.16223984 L10.1125214,1.15849007 C10.4893729,1.15849007 10.872474,1.18598836 11.2493255,1.24223485 L11.2861982,1.27348291 L11.4324391,1.29910631 C14.1666437,1.77157686 16.7546074,3.49459448 18.7232347,6.1525538 C18.8757252,6.3637907 18.8813499,6.6562724 18.7307343,6.8437608 C16.7189847,9.4585978 14.1272712,11.1578669 11.4324391,11.6303374 L11.2524503,11.6615855 L11.2230772,11.6909587 C10.8599748,11.7434554 10.4924977,11.7690788 10.1056468,11.7690788 C10.0981473,11.7690788 10.0900228,11.7690788 10.0818983,11.7690788 L9.9919039,11.7672039 L9.8825357,11.7709537 C9.5150586,11.7709537 9.1425818,11.7434554 8.7732299,11.6909587 L8.7438567,11.6615855 L8.7457316,11.6622105 Z M11.1124591,1.12349225 C11.1105842,1.12161737 11.1087093,1.11974249 11.1087093,1.11974249 L11.1124591,1.12349225 Z M11.9330329,0.31291777 L11.9255334,0.30479328 C11.9274083,0.30666816 11.931158,0.31041793 11.9330329,0.31291777 Z M10.0187772,11.4940959 C12.7454823,11.4003518 14.8815992,9.1917394 14.8815992,6.4650344 C14.8815992,3.73832929 12.7448573,1.52971694 10.0187772,1.43597278 L9.9794047,1.43597278 C7.25269962,1.52971694 5.11658274,3.73832929 5.11658274,6.4650344 C5.11658274,9.1917394 7.25332458,11.4003518 9.9794047,11.4940959 L10.0187772,11.4940959 Z M13.7297959,6.4650344 C13.7297959,8.5605288 12.093023,10.257923 9.9994034,10.3397929 C7.90578391,10.257923 6.26901092,8.5586539 6.26901092,6.4650344 C6.26901092,4.3714148 7.90578391,2.67214574 9.9994034,2.59027584 C12.093023,2.67214574 13.7297959,4.3714148 13.7297959,6.4650344 Z" id="path-1"></path>
            </g>
        </g>
    </g>
</svg>