<?xml version="1.0" encoding="UTF-8"?>
<svg width="18px" height="20px" viewBox="0 0 18 20" version="1.1" xmlns="http://www.w3.org/2000/svg" xmlns:xlink="http://www.w3.org/1999/xlink">
    <!-- Generator: Sketch 49.1 (51147) - http://www.bohemiancoding.com/sketch -->
    <title>path-1</title>
    <desc>Created with Sketch.</desc>
    <defs></defs>
    <g id="design***" stroke="none" stroke-width="1" fill="none" fill-rule="evenodd">
        <g id="info_noticias" transform="translate(-145.000000, -462.000000)" fill="#0079C8" fill-rule="nonzero">
            <g id="Group-5" transform="translate(145.000000, 462.000000)">
                <g id="share">
                    <path d="M14.21375,20 C13.2975,20 12.538125,19.6875 11.89125,19.046875 C11.250625,18.414375 10.92625,17.636875 10.92625,16.734375 C10.92625,16.5075 10.951875,16.2775 11.00625,16.03125 L11.025625,15.94125 L5.209375,12.581875 L5.143125,12.62875 C4.60375,13.01375 3.97875,13.206875 3.2875,13.206875 C2.37125,13.206875 1.611875,12.894375 0.965,12.25375 C0.324375,11.62125 0,10.84375 0,9.94125 C0,9.05875 0.324375,8.293125 0.965,7.66 C1.581875,7.046875 2.30125,6.748125 3.1625,6.748125 C3.201875,6.748125 3.2425,6.748125 3.281875,6.75 C4.04375,6.75 4.701875,6.98625 5.299375,7.474375 L5.3675,7.529375 L11.098125,4.220625 L11.070625,4.125 C10.97125,3.785 10.924375,3.488125 10.924375,3.189375 C10.924375,2.30625 11.24875,1.53875 11.889375,0.908125 C12.510625,0.29875 13.229375,0 14.090625,0 C14.13,0 14.170625,0 14.21,0.001875 C15.10625,0.001875 15.8525,0.310625 16.496875,0.946875 C17.131875,1.5775 17.45375,2.349375 17.45375,3.241875 C17.45375,4.13625 17.145,4.880625 16.510625,5.515625 C15.87625,6.150625 15.12375,6.45875 14.215625,6.45875 C13.299375,6.45875 12.54,6.14625 11.893125,5.505625 C11.851875,5.46625 11.81875,5.42375 11.785625,5.380625 C11.761875,5.35125 11.73875,5.321875 11.713125,5.2925 L11.645,5.2125 L6.105625,8.41 L6.1625,8.5175 C6.406875,8.98625 6.525625,9.46875 6.525625,9.991875 C6.525625,10.581875 6.373125,11.1325 6.070625,11.62875 L6.004375,11.74 L11.508125,14.9175 L11.57625,14.829375 C11.68,14.694375 11.775625,14.569375 11.8925,14.454375 C12.51,13.84125 13.228125,13.5425 14.09,13.5425 C14.129375,13.5425 14.17,13.5425 14.21125,13.544375 C15.1075,13.544375 15.85375,13.853125 16.498125,14.4875 C17.133125,15.118125 17.455,15.89 17.455,16.7825 C17.455,17.676875 17.14625,18.42125 16.511875,19.055625 C15.873125,19.690625 15.123125,19.99875 14.213125,19.99875 L14.21375,20 Z M14.21375,14.67375 C13.643125,14.67375 13.1475,14.876875 12.743125,15.2775 C12.336875,15.68 12.1375,16.17 12.15125,16.738125 C12.15125,17.310625 12.354375,17.8025 12.756875,18.195 C13.149375,18.59125 13.64,18.7925 14.21375,18.7925 C14.78,18.7925 15.270625,18.59125 15.670625,18.193125 C16.07125,17.7925 16.274375,17.3025 16.274375,16.734375 C16.274375,16.171875 16.07125,15.681875 15.670625,15.2775 C15.2625,14.876875 14.771875,14.67375 14.21375,14.67375 Z M3.288125,7.883125 C2.718125,7.883125 2.221875,8.08625 1.8175,8.486875 C1.41125,8.889375 1.211875,9.379375 1.225625,9.948125 C1.225625,10.520625 1.42875,11.0125 1.83125,11.405 C2.22375,11.80125 2.71375,12.0025 3.288125,12.0025 C3.8525,12.0025 4.345,11.80125 4.745,11.403125 C5.145625,11.0025 5.34875,10.510625 5.34875,9.944375 C5.34875,9.381875 5.145625,8.891875 4.745,8.4875 C4.336875,8.086875 3.84625,7.88375 3.288125,7.88375 L3.288125,7.883125 Z M14.21375,1.130625 C13.643125,1.130625 13.1475,1.33375 12.743125,1.734375 C12.336875,2.136875 12.1375,2.62875 12.15125,3.1975 C12.15125,3.77 12.354375,4.261875 12.756875,4.654375 C13.149375,5.050625 13.64,5.251875 14.21375,5.251875 C14.778125,5.251875 15.270625,5.050625 15.670625,4.6525 C16.07125,4.251875 16.274375,3.76 16.274375,3.19375 C16.274375,2.63125 16.07125,2.14125 15.670625,1.736875 C15.2625,1.334375 14.771875,1.13125 14.21375,1.13125 L14.21375,1.130625 Z" id="path-1"></path>
                </g>
            </g>
        </g>
    </g>
</svg>