<?xml version="1.0" encoding="UTF-8"?>
<svg width="24px" height="29px" viewBox="0 0 24 29" version="1.1" xmlns="http://www.w3.org/2000/svg" xmlns:xlink="http://www.w3.org/1999/xlink">
    <!-- Generator: Sketch 49.1 (51147) - http://www.bohemiancoding.com/sketch -->
    <title>courses-linear</title>
    <desc>Created with Sketch.</desc>
    <defs></defs>
    <g id="design***" stroke="none" stroke-width="1" fill="none" fill-rule="evenodd">
        <g id="Home_desk" transform="translate(-16.000000, -178.000000)" fill="#FFFFFF" fill-rule="nonzero">
            <g id="Group" transform="translate(0.000000, 53.000000)">
                <g id="courses-linear" transform="translate(16.000000, 125.000000)">
                    <path d="M7.76470588,28.2352941 L7.76470588,18.3529412 L9.88235294,18.3529412 L9.88235294,11.2941176 C9.88235294,10.5144215 9.25028435,9.88235294 8.47058824,9.88235294 L2.82352941,9.88235294 C2.04383329,9.88235294 1.41176471,10.5144215 1.41176471,11.2941176 L1.41176471,18.3529412 L3.52941176,18.3529412 L3.52941176,28.2352941 L2.11764706,28.2352941 L2.11764706,19.7647059 L1.41176471,19.7647059 C0.470588231,19.7647059 0,19.2941177 0,18.3529412 C0,16.4705883 0,14.1176471 0,11.2941176 C0,9.73472541 1.26413718,8.47058824 2.82352941,8.47058824 L8.47058824,8.47058824 C10.0299805,8.47058824 11.2941176,9.73472541 11.2941176,11.2941176 C11.2941176,16 11.2941176,18.3529412 11.2941176,18.3529412 C11.2941176,18.3529412 11.2941176,19.7647059 9.88235294,19.7647059 C9.88235294,19.7647059 9.64705882,19.7647059 9.17647059,19.7647059 L9.17647059,28.2352941 L7.76470588,28.2352941 Z M5.64864373,7.05882353 C3.63274266,7.05882353 2.036821,5.48096886 2.12081687,3.48788928 C2.12081687,1.57785467 3.71673854,0 5.64864373,0 C7.58054891,0 9.17647059,1.57785467 9.17647059,3.57093425 C9.17647059,5.48096886 7.66454479,7.05882353 5.64864373,7.05882353 Z M5.64705882,1.41176471 C4.41176471,1.41176471 3.52941176,2.4489796 3.52941176,3.57262904 C3.52941176,4.69627851 4.5,5.64705882 5.64705882,5.64705882 C6.79411765,5.64705882 7.76470588,4.60984393 7.76470588,3.48619448 C7.76470588,2.36254502 6.79411765,1.41176471 5.64705882,1.41176471 Z M15.5294118,15.5294118 L15.5294118,14.8235294 C15.5294118,14.4336813 15.845446,14.1176471 16.2352941,14.1176471 L19.0588235,14.1176471 C19.4486716,14.1176471 19.7647059,14.4336813 19.7647059,14.8235294 L19.7647059,15.5294118 L22.5882353,15.5294118 L22.5882353,1.41176471 L10.1127309,1.41176471 C9.86136738,0.882631934 9.51872966,0.405261529 9.10516429,0 L22.5882353,0 C23.3679313,0 24,0.632068588 24,1.41176471 L24,15.5294118 C24,16.3091078 23.3679313,16.9411765 22.5882353,16.9411765 L12.7058824,16.9411765 L12.7058824,15.5294118 L15.5294118,15.5294118 Z" id="path-1"></path>
                </g>
            </g>
        </g>
    </g>
</svg>