<?xml version="1.0" encoding="UTF-8"?>
<svg width="24px" height="29px" viewBox="0 0 24 29" version="1.1" xmlns="http://www.w3.org/2000/svg" xmlns:xlink="http://www.w3.org/1999/xlink">
    <!-- Generator: Sketch 49.1 (51147) - http://www.bohemiancoding.com/sketch -->
    <title>documentation</title>
    <desc>Created with Sketch.</desc>
    <defs></defs>
    <g id="design***" stroke="none" stroke-width="1" fill="none" fill-rule="evenodd">
        <g id="Home_desk" transform="translate(-16.000000, -233.000000)" fill="#FFFFFF" fill-rule="nonzero">
            <g id="Group" transform="translate(0.000000, 53.000000)">
                <g id="documentation" transform="translate(16.000000, 180.000000)">
                    <path d="M22.57024,20.86016 C22.57024,21.06976 22.35904,21.21056 22.21984,21.21056 L17.35904,21.21056 L17.35904,16.45056 L20.74944,16.45056 L20.74944,15.33056 L17.35904,15.33056 L17.35904,13.65056 L20.74944,13.65056 L20.74944,12.53056 L17.35904,12.53056 L17.35904,12.21056 C17.35904,12.00096 17.29024,11.78976 17.14944,11.65056 L16.27904,10.78016 L20.74944,10.78016 L20.74944,9.66016 L15.15904,9.66016 L13.40864,7.90976 L12.10944,6.61056 C11.97024,6.46976 11.75904,6.40096 11.54944,6.40096 L7.59104,6.40096 L7.59104,1.54016 C7.59104,1.33056 7.73024,1.18976 7.93984,1.18976 L17.17984,1.18976 C17.39104,1.18976 17.53024,1.33056 17.53024,1.54016 L17.53024,5.31936 C17.53024,5.88096 17.94944,6.30016 18.50944,6.30016 L22.21984,6.30016 C22.42944,6.30016 22.57024,6.43936 22.57024,6.65056 L22.57024,20.86016 Z M15.33024,11.43936 L15.33024,11.50976 L15.25984,11.43936 L12.60064,11.43936 C12.39104,11.43936 12.25024,11.30016 12.25024,11.09056 L12.25024,8.42976 L15.25984,11.43936 L15.33024,11.43936 Z M16.17024,27.26016 C16.17024,27.46976 15.95904,27.61056 15.81984,27.61056 L1.53984,27.61056 C1.33024,27.61056 1.19104,27.46976 1.19104,27.26016 L1.19104,7.94016 C1.19104,7.73056 1.33024,7.58976 1.53984,7.58976 L10.77984,7.58976 C10.99104,7.58976 11.13024,7.73056 11.13024,7.94016 L11.13024,11.71936 C11.13024,12.28096 11.54944,12.70016 12.10944,12.70016 L15.81984,12.70016 C16.02944,12.70016 16.17024,12.83936 16.17024,13.05056 L16.17024,27.26016 Z M18.65024,2.02976 L21.65984,5.03936 L21.73024,5.03936 L21.73024,5.10976 L21.65984,5.03936 L19.00064,5.03936 C18.79104,5.03936 18.65024,4.90016 18.65024,4.69056 L18.65024,2.02976 Z M23.54944,5.25056 L18.50944,0.21056 C18.37024,0.06976 18.15904,0.00096 17.94944,0.00096 L7.52064,0.00096 C6.89024,0.00096 6.40064,0.49056 6.40064,1.11936 L6.40064,6.40096 L1.12064,6.40096 C0.49024,6.40096 0.00064,6.89056 0.00064,7.51936 L0.00064,27.68096 C0.00064,28.30976 0.49024,28.80096 1.12064,28.80096 L16.24064,28.80096 C16.86944,28.80096 17.35904,28.30976 17.35904,27.68096 L17.35904,22.40096 L22.64064,22.40096 C23.26944,22.40096 23.75904,21.90976 23.75904,21.28096 L23.75904,5.81056 C23.75904,5.60096 23.69024,5.38976 23.54944,5.25056 Z M2.8704,22.8512 L14.3504,22.8512 L14.3504,21.7312 L2.8704,21.7312 L2.8704,22.8512 Z M2.8704,25.72 L8.3312,25.72 L8.3312,24.6016 L2.8704,24.6016 L2.8704,25.72 Z M2.8704,11.44 L9.3808,11.44 L9.3808,10.32 L2.8704,10.32 L2.8704,11.44 Z M2.8704,14.3104 L9.3808,14.3104 L9.3808,13.1904 L2.8704,13.1904 L2.8704,14.3104 Z M2.8704,17.1808 L14.3504,17.1808 L14.3504,16.0608 L2.8704,16.0608 L2.8704,17.1808 Z M2.8704,20.0512 L14.3504,20.0512 L14.3504,18.9312 L2.8704,18.9312 L2.8704,20.0512 Z M12.2904,6.7896 L13.4088,7.9096 L15.78,7.9096 L15.78,6.7896 L12.2904,6.7896 Z M9.2704,5.04 L15.7792,5.04 L15.7792,3.92 L9.2704,3.92 L9.2704,5.04 Z" id="path-1"></path>
                </g>
            </g>
        </g>
    </g>
</svg>