<?xml version="1.0" encoding="UTF-8"?>
<svg width="8px" height="8px" viewBox="0 0 8 8" version="1.1" xmlns="http://www.w3.org/2000/svg" xmlns:xlink="http://www.w3.org/1999/xlink">
    <!-- Generator: Sketch 49.1 (51147) - http://www.bohemiancoding.com/sketch -->
    <title>path-1</title>
    <desc>Created with Sketch.</desc>
    <defs></defs>
    <g id="design***" stroke="none" stroke-width="1" fill="none" fill-rule="evenodd">
        <g id="info_noticias-interior" transform="translate(-1057.000000, -352.000000)" fill="#0079C8" fill-rule="nonzero">
            <path d="M1061.6,355.4 L1064.4,355.4 C1064.73137,355.4 1065,355.668629 1065,356 C1065,356.331371 1064.73137,356.6 1064.4,356.6 L1061.6,356.6 L1061.6,359.4 C1061.6,359.731371 1061.33137,360 1061,360 C1060.66863,360 1060.4,359.731371 1060.4,359.4 L1060.4,356.6 L1057.6,356.6 C1057.26863,356.6 1057,356.331371 1057,356 C1057,355.668629 1057.26863,355.4 1057.6,355.4 L1060.4,355.4 L1060.4,352.6 C1060.4,352.268629 1060.66863,352 1061,352 C1061.33137,352 1061.6,352.268629 1061.6,352.6 L1061.6,355.4 Z" id="path-1"></path>
        </g>
    </g>
</svg>