<?xml version="1.0" encoding="UTF-8"?>
<svg width="24px" height="19px" viewBox="0 0 24 19" version="1.1" xmlns="http://www.w3.org/2000/svg" xmlns:xlink="http://www.w3.org/1999/xlink">
    <!-- Generator: Sketch 49.1 (51147) - http://www.bohemiancoding.com/sketch -->
    <title>Page 1</title>
    <desc>Created with Sketch.</desc>
    <defs>
        <polygon id="path-1" points="23.316888 9.18321063 23.316888 3.64326376e-05 0 3.64326376e-05 0 9.18321063 0 18.3663848 23.316888 18.3663848 23.316888 9.18321063"></polygon>
    </defs>
    <g id="design-desk***" stroke="none" stroke-width="1" fill="none" fill-rule="evenodd">
        <g id="Home_desk_despliegue-perfil_foto" transform="translate(-649.000000, -366.000000)">
            <g id="Page-1" transform="translate(649.000000, 366.000000)">
                <mask id="mask-2" fill="white">
                    <use xlink:href="#path-1"></use>
                </mask>
                <g id="Clip-2"></g>
                <path d="M21.7834383,14.7712486 L21.7834383,8.68845541 C21.7834383,6.86791651 20.4102922,5.49513472 18.5897533,5.49513472 L17.822482,5.49513472 L17.822482,4.72786338 C17.822482,2.90732448 16.4497002,1.53417837 14.6291613,1.53417837 L14.1857761,1.53417837 L1.53527135,1.53490702 L1.53527135,11.9615636 L7.78419734,6.32798482 L12.7973283,11.7349526 L16.7637495,9.7519241 L21.7834383,14.7712486 Z M1.53454269,13.9358482 L1.53454269,16.8322429 L21.6027324,16.8322429 L16.3564326,11.5859431 L12.4002125,13.563871 L7.61259962,8.47678178 L1.53454269,13.9358482 Z M1.75751044,18.3664213 C0.788402277,18.3664213 0,17.578019 0,16.6089108 L0,1.75714611 C0,0.788402277 0.788402277,0 1.75751044,0 L14.6291613,0 C16.8854345,0 18.8768425,1.66570019 19.2615712,3.87424668 L19.2885313,4.02872106 L19.4430057,4.05531689 C21.6515522,4.44004554 23.316888,6.43145351 23.316888,8.68772676 L23.316888,16.6089108 C23.316888,17.578019 22.5288501,18.3664213 21.5597419,18.3664213 L1.75751044,18.3664213 Z" id="Fill-1" fill="#0079C8" mask="url(#mask-2)"></path>
            </g>
        </g>
    </g>
</svg>