<?xml version="1.0" encoding="UTF-8"?>
<svg width="16px" height="16px" viewBox="0 0 16 16" version="1.1" xmlns="http://www.w3.org/2000/svg" xmlns:xlink="http://www.w3.org/1999/xlink">
    <!-- Generator: Sketch 49.1 (51147) - http://www.bohemiancoding.com/sketch -->
    <title>plus</title>
    <desc>Created with Sketch.</desc>
    <defs></defs>
    <g id="design-desk***" stroke="none" stroke-width="1" fill="none" fill-rule="evenodd">
        <g id="info_noticias-interior_documentos" transform="translate(-863.000000, -259.000000)" fill="#0079C8" fill-rule="nonzero">
            <g id="Group-3" transform="translate(129.000000, 239.000000)">
                <g id="plus" transform="translate(734.000000, 20.000000)">
                    <path d="M5.92031499,9.8436924 L0.235992624,9.8436924 C0.106496672,9.8436924 0,9.73769568 0,9.60769976 L0,6.39230024 C0,6.26280429 0.105996688,6.15630762 0.235992624,6.15630762 L5.92031499,6.15630762 C6.04981094,6.15630762 6.15630762,6.04981094 6.15630762,5.92031499 L6.15630762,0.235992624 C6.15630762,0.106496672 6.26280429,0 6.39230024,0 L9.60769976,0 C9.73719568,0 9.8436924,0.105996688 9.8436924,0.235992624 L9.8436924,5.92031499 C9.8436924,6.04981094 9.94968904,6.15630762 10.079685,6.15630762 L15.7640074,6.15630762 C15.8935034,6.15630762 16,6.26280429 16,6.39230024 L16,9.60769976 C16,9.73719568 15.8940033,9.8436924 15.7640074,9.8436924 L10.079685,9.8436924 C9.95018904,9.8436924 9.8436924,9.94968904 9.8436924,10.079685 L9.8436924,15.7640074 C9.8436924,15.8935034 9.73769568,16 9.60769976,16 L6.39230024,16 C6.26280429,16 6.15630762,15.8940033 6.15630762,15.7640074 L6.15630762,10.079685 C6.15630762,9.95018904 6.04981094,9.8436924 5.92031499,9.8436924 Z" id="path-1"></path>
                </g>
            </g>
        </g>
    </g>
</svg>