<?xml version="1.0" encoding="UTF-8"?>
<svg width="25px" height="24px" viewBox="0 0 25 24" version="1.1" xmlns="http://www.w3.org/2000/svg" xmlns:xlink="http://www.w3.org/1999/xlink">
    <!-- Generator: Sketch 49.1 (51147) - http://www.bohemiancoding.com/sketch -->
    <title>draft</title>
    <desc>Created with Sketch.</desc>
    <defs>
        <path d="M1185.19218,25.612682 L1187.79398,28.179226 L1184.92293,29.1309923 L1184.11891,28.3644792 L1185.19218,25.612682 Z M1195.0946,21.0608539 L1188.51999,27.5177146 L1187.55397,26.5659483 L1194.15409,20.0550867 L1193.45583,19.3658249 L1186.85571,25.8766865 L1185.78244,24.8199184 L1192.38256,18.3090567 L1191.68429,17.6197949 L1184.51942,24.6841661 C1184.46542,24.738167 1184.43992,24.7921679 1184.41367,24.8694192 L1182.40064,30.16376 C1182.32113,30.3467632 1182.37514,30.5342664 1182.50864,30.6655186 C1182.61439,30.7712704 1182.72164,30.8245213 1182.85589,30.8245213 C1182.91214,30.8245213 1182.9639,30.8245213 1183.0179,30.7960209 L1188.33099,29.052241 C1188.41049,29.0237405 1188.46674,28.99824 1188.52074,28.9442391 L1195.79362,21.7718661 L1195.09535,21.0593539 L1195.0946,21.0608539 Z M1197.45714,18.733564 L1196.65088,19.5255776 L1193.91333,16.8000309 L1194.7196,16.0057672 C1194.7451,15.9802668 1194.7991,15.9517663 1194.82535,15.9517663 C1194.85385,15.9517663 1194.8816,15.9517663 1194.93335,16.0057672 L1197.48114,18.5205604 C1197.50964,18.5483108 1197.5374,18.6000617 1197.5374,18.6263122 C1197.50889,18.6540627 1197.48114,18.7058135 1197.45789,18.734314 L1197.45714,18.733564 Z M1198.15616,17.8335486 L1195.60386,15.3165054 C1195.39086,15.1057518 1195.09535,15 1194.79985,15 C1194.50209,15 1194.20659,15.1057518 1193.99358,15.3165054 L1192.49131,16.8000309 L1196.67713,20.9018512 L1198.17941,19.4183258 C1198.61066,18.9990686 1198.61066,18.2835563 1198.15616,17.8342986 L1198.15616,17.8335486 Z M1190.69578,38.4004012 L1176.46428,38.4004012 C1175.37902,38.4004012 1174.5,37.5213862 1174.5,36.4361176 L1174.5,22.2046235 C1174.5,21.1193549 1175.37902,20.2403399 1176.46428,20.2403399 L1186.03895,20.2403399 C1186.38845,20.2403399 1186.67196,20.5238447 1186.67196,20.8733507 C1186.67196,21.2228567 1186.38845,21.5063616 1186.03895,21.5063616 L1176.40578,21.5063616 C1176.05178,21.5063616 1175.76377,21.7921165 1175.76377,22.1483726 L1175.76377,36.4968686 C1175.76377,36.8508747 1176.04953,37.1388796 1176.40578,37.1388796 L1190.75428,37.1388796 C1191.10828,37.1388796 1191.39629,36.8531247 1191.39629,36.4968686 L1191.39629,27.5552153 C1191.39629,27.2057093 1191.67979,26.9222044 1192.0293,26.9222044 C1192.37881,26.9222044 1192.66231,27.2057093 1192.66231,27.5552153 L1192.66231,36.4361176 C1192.66006,37.5191361 1191.78105,38.4004012 1190.69578,38.4004012 Z" id="path-1"></path>
    </defs>
    <g id="Symbols" stroke="none" stroke-width="1" fill="none" fill-rule="evenodd">
        <g id="top_bar" transform="translate(-1174.000000, -15.000000)">
            <mask id="mask-2" fill="white">
                <use xlink:href="#path-1"></use>
            </mask>
            <use id="draft" fill="#FFFFFF" fill-rule="nonzero" xlink:href="#path-1"></use>
        </g>
    </g>
</svg>