<?xml version="1.0" encoding="UTF-8"?>
<svg width="14px" height="14px" viewBox="0 0 14 14" version="1.1" xmlns="http://www.w3.org/2000/svg" xmlns:xlink="http://www.w3.org/1999/xlink">
    <!-- Generator: Sketch 49.1 (51147) - http://www.bohemiancoding.com/sketch -->
    <title>path-1</title>
    <desc>Created with Sketch.</desc>
    <defs></defs>
    <g id="design***" stroke="none" stroke-width="1" fill="none" fill-rule="evenodd">
        <g id="info_noticias-interior" transform="translate(-1131.000000, -153.000000)" fill="#0079C8" fill-rule="nonzero">
            <g id="new-window" transform="translate(1131.000000, 153.000000)">
                <path d="M6.22222223,1.55555555 L6.22222223,2.33333333 L1.55555555,2.33333333 C1.12600075,2.33333333 0.777777777,2.6815563 0.777777777,3.11111111 L0.777777777,12.4444445 C0.777777777,12.8739992 1.12600075,13.2222222 1.55555555,13.2222222 L10.8888889,13.2222222 C11.3184437,13.2222222 11.6666667,12.8739992 11.6666667,12.4444445 L11.6666667,7.77777777 L12.4444445,7.77777777 L12.4444445,12.4444445 C12.4444445,13.303554 11.7479985,14 10.8888889,14 L1.55555555,14 C0.696445946,14 0,13.303554 0,12.4444445 L0,3.11111111 C0,2.2520015 0.696445946,1.55555555 1.55555555,1.55555555 L6.22222223,1.55555555 Z M6.22222223,1.55555555 L6.22222223,2.33333333 L1.55555555,2.33333333 C1.12600075,2.33333333 0.777777777,2.6815563 0.777777777,3.11111111 L0.777777777,12.4444445 C0.777777777,12.8739992 1.12600075,13.2222222 1.55555555,13.2222222 L10.8888889,13.2222222 C11.3184437,13.2222222 11.6666667,12.8739992 11.6666667,12.4444445 L11.6666667,7.77777777 L12.4444445,7.77777777 L12.4444445,12.4444445 C12.4444445,13.303554 11.7479985,14 10.8888889,14 L1.55555555,14 C0.696445946,14 0,13.303554 0,12.4444445 L0,3.11111111 C0,2.2520015 0.696445946,1.55555555 1.55555555,1.55555555 L6.22222223,1.55555555 Z M12.1920963,1.05781083 L7.27735939,1.05294957 C6.98714198,1.05294957 6.75039848,0.817664442 6.75185686,0.527447039 C6.75185686,0.385984284 6.80678908,0.252299551 6.90547277,0.15361591 C7.00415639,0.054932269 7.13638275,0 7.27784547,0 L13.4681778,0 C13.7569368,0 14,0.240146396 14,0.522585777 L14,6.7129181 C13.9956249,6.85729765 13.9406926,6.98806563 13.8420089,7.08674925 C13.738464,7.18980801 13.6096406,7.2447403 13.4681778,7.2447403 C13.1784465,7.2447403 12.9412169,7.0079968 12.9412169,6.71777939 L12.9412169,1.80644534 L6.50835129,8.23931094 C6.303206,8.44591461 5.96729273,8.44591461 5.76068906,8.23931094 C5.55408537,8.0346518 5.55408537,7.69873853 5.76068906,7.49213479 L12.1920963,1.05781083 Z" id="path-1"></path>
            </g>
        </g>
    </g>
</svg>