<?xml version="1.0" encoding="UTF-8"?>
<svg width="20px" height="13px" viewBox="0 0 20 13" version="1.1" xmlns="http://www.w3.org/2000/svg" xmlns:xlink="http://www.w3.org/1999/xlink">
    <!-- Generator: Sketch 49.1 (51147) - http://www.bohemiancoding.com/sketch -->
    <title>eye</title>
    <desc>Created with Sketch.</desc>
    <defs>
        <path d="M12.1537688,11.234486 C12.1537688,10.6951447 11.8081654,10.1958008 11.3081965,10.0433103 C11.5388071,9.96706504 11.7694178,9.92831745 11.9994034,9.92831745 C13.4211898,9.92831745 14.5361203,11.0826205 14.5361203,12.4650344 C14.5361203,13.8868207 13.3818173,15.0017513 11.9994034,15.0017513 C10.6144897,15.0017513 9.46268653,13.8474482 9.46268653,12.4650344 C9.46268653,12.1194309 9.53893178,11.7738274 9.65392461,11.5044692 C9.76891744,12.0806833 10.2688863,12.5044069 10.8844729,12.5044069 C11.5756798,12.5044069 12.1537688,11.9263179 12.1537688,11.235111 L12.1537688,11.234486 Z M13.594929,18.8027644 L13.7805424,18.7715163 L13.8174151,18.7321438 C16.7291087,18.1678039 19.5045607,16.3316684 21.6413025,13.5549664 C22.1137731,12.9650032 22.1200227,12.1075566 21.6569266,11.4713463 L21.6531768,11.4675965 C19.5383086,8.61402436 16.7453577,6.74351593 13.7730429,6.18667564 L13.7142966,6.14730309 L13.594929,6.1279293 C13.0737115,6.03980979 12.5424946,5.97981353 12.0250268,6.00668686 L11.9762799,6.00668686 C11.4625619,5.97918857 10.9275952,6.03980979 10.4063777,6.1279293 L10.2832604,6.14730309 L10.2263889,6.18417579 C7.25407417,6.74476586 4.46112324,8.61589924 2.34375519,11.4732212 C1.88065906,12.1100565 1.88690867,12.967503 2.35375457,13.5493418 C4.49612106,16.3341682 7.2696982,18.1703038 10.1832666,18.7327687 L10.2201393,18.7721413 L10.4057528,18.8033893 C10.9269703,18.889009 11.460687,18.9477553 11.9762799,18.9246318 L12.0250268,18.9246318 C12.0544,18.9265067 12.0856481,18.9265067 12.1150212,18.9265067 C12.6049907,18.9265067 13.1030847,18.8852592 13.595554,18.8033893 L13.594929,18.8027644 Z M10.7457316,17.6622105 L10.5663677,17.6309624 C7.87091073,17.1603667 5.27982221,15.4592228 3.26182298,12.8362612 C3.11745698,12.6562724 3.12495651,12.3619158 3.27557212,12.1563036 C5.24419943,9.49646936 7.83216315,7.77157686 10.561993,7.29910631 L10.7082339,7.27348291 L10.7451066,7.24223485 C11.123833,7.18723828 11.524433,7.15849007 11.9131588,7.16036496 L12.0031532,7.16223984 L12.1125214,7.15849007 C12.4893729,7.15849007 12.872474,7.18598836 13.2493255,7.24223485 L13.2861982,7.27348291 L13.4324391,7.29910631 C16.1666437,7.77157686 18.7546074,9.49459448 20.7232347,12.1525538 C20.8757252,12.3637907 20.8813499,12.6562724 20.7307343,12.8437608 C18.7189847,15.4585978 16.1272712,17.1578669 13.4324391,17.6303374 L13.2524503,17.6615855 L13.2230772,17.6909587 C12.8599748,17.7434554 12.4924977,17.7690788 12.1056468,17.7690788 C12.0981473,17.7690788 12.0900228,17.7690788 12.0818983,17.7690788 L11.9919039,17.7672039 L11.8825357,17.7709537 C11.5150586,17.7709537 11.1425818,17.7434554 10.7732299,17.6909587 L10.7438567,17.6615855 L10.7457316,17.6622105 Z M13.1124591,7.12349225 C13.1105842,7.12161737 13.1087093,7.11974249 13.1087093,7.11974249 L13.1124591,7.12349225 Z M13.9330329,6.31291777 L13.9255334,6.30479328 C13.9274083,6.30666816 13.931158,6.31041793 13.9330329,6.31291777 Z M12.0187772,17.4940959 C14.7454823,17.4003518 16.8815992,15.1917394 16.8815992,12.4650344 C16.8815992,9.73832929 14.7448573,7.52971694 12.0187772,7.43597278 L11.9794047,7.43597278 C9.25269962,7.52971694 7.11658274,9.73832929 7.11658274,12.4650344 C7.11658274,15.1917394 9.25332458,17.4003518 11.9794047,17.4940959 L12.0187772,17.4940959 Z M15.7297959,12.4650344 C15.7297959,14.5605288 14.093023,16.257923 11.9994034,16.3397929 C9.90578391,16.257923 8.26901092,14.5586539 8.26901092,12.4650344 C8.26901092,10.3714148 9.90578391,8.67214574 11.9994034,8.59027584 C14.093023,8.67214574 15.7297959,10.3714148 15.7297959,12.4650344 Z" id="path-1"></path>
    </defs>
    <g id="Symbols" stroke="none" stroke-width="1" fill="none" fill-rule="evenodd">
        <g id="icons/misc/eye" transform="translate(-2.000000, -6.000000)">
            <mask id="mask-2" fill="white">
                <use xlink:href="#path-1"></use>
            </mask>
            <use id="eye" fill="#FFFFFF" fill-rule="nonzero" xlink:href="#path-1"></use>
        </g>
    </g>
</svg>