<?xml version="1.0" encoding="UTF-8"?>
<svg width="13px" height="21px" viewBox="0 0 13 21" version="1.1" xmlns="http://www.w3.org/2000/svg" xmlns:xlink="http://www.w3.org/1999/xlink">
    <!-- Generator: Sketch 49.1 (51147) - http://www.bohemiancoding.com/sketch -->
    <title>arrow-left</title>
    <desc>Created with Sketch.</desc>
    <defs></defs>
    <g id="design***" stroke="none" stroke-width="1" fill="none" fill-rule="evenodd">
        <g id="Home_desk" transform="translate(-1210.000000, -108.000000)" fill="#0079C8" fill-rule="nonzero">
            <g id="arrow-left" transform="translate(1217.000000, 118.500000) scale(-1, -1) translate(-1217.000000, -118.500000) translate(1210.000000, 108.000000)">
                <g transform="translate(7.248301, 10.251699) rotate(90.000000) translate(-7.248301, -10.251699) translate(-2.751699, 3.751699)" id="path-1">
                    <path d="M3.29666723,0.330698334 L9.6321932,6.64497469 C9.8334401,6.84622149 10.16156,6.84622149 10.3628068,6.64497469 L16.7027078,0.330698334 C17.1458258,-0.110544776 17.8626896,-0.110544776 18.3064327,0.332573304 L19.6676614,1.69380203 C20.1107795,2.1369201 20.1107795,2.85565887 19.6676614,3.29940194 L10.8028,12.1642634 C10.3596819,12.6073815 9.6409431,12.6073815 9.1972,12.1642634 L0.332338552,3.29940194 C-0.110779518,2.85628386 -0.110779518,2.13754509 0.332338552,1.69380203 L1.69356728,0.332573304 C2.13668536,-0.110544776 2.85354916,-0.110544776 3.29729222,0.330698334 L3.29666723,0.330698334 Z"></path>
                </g>
            </g>
        </g>
    </g>
</svg>