<?xml version="1.0" encoding="UTF-8"?>
<svg width="17px" height="16px" viewBox="0 0 17 16" version="1.1" xmlns="http://www.w3.org/2000/svg" xmlns:xlink="http://www.w3.org/1999/xlink">
    <!-- Generator: Sketch 49.1 (51147) - http://www.bohemiancoding.com/sketch -->
    <title>Excel</title>
    <desc>Created with Sketch.</desc>
    <defs></defs>
    <g id="design-desk***" stroke="none" stroke-width="1" fill="none" fill-rule="evenodd">
        <g id="honorarios_03" transform="translate(-1068.000000, -198.000000)" fill="#0079C8" fill-rule="nonzero">
            <g id="Group-4" transform="translate(1068.000000, 198.000000)">
                <g id="Excel">
                    <path d="M14.2087501,4.26719367 C14.4992401,4.26719367 14.7350001,4.50611627 14.7350001,4.80050305 C14.7350001,5.09488983 14.4992401,5.33381243 14.2087501,5.33381243 L13.1562501,5.33381243 C12.8657601,5.33381243 12.6300001,5.09488983 12.6300001,4.80050305 C12.6300001,4.50611627 12.8657601,4.26719367 13.1562501,4.26719367 L14.2087501,4.26719367 Z M14.2087501,6.40043116 C14.4992401,6.40043116 14.7350001,6.63935377 14.7350001,6.93374055 C14.7350001,7.22812733 14.4992401,7.46704994 14.2087501,7.46704994 L13.1562501,7.46704994 C12.8657601,7.46704994 12.6300001,7.22812733 12.6300001,6.93374055 C12.6300001,6.63935377 12.8657601,6.40043116 13.1562501,6.40043116 L14.2087501,6.40043116 Z M14.2087501,8.53366872 C14.4992401,8.53366872 14.7350001,8.77259133 14.7350001,9.0669781 C14.7350001,9.36136488 14.4992401,9.60028749 14.2087501,9.60028749 L13.1562501,9.60028749 C12.8657601,9.60028749 12.6300001,9.36136488 12.6300001,9.0669781 C12.6300001,8.77259133 12.8657601,8.53366872 13.1562501,8.53366872 L14.2087501,8.53366872 Z M14.2087501,10.6669062 C14.4992401,10.6669062 14.7350001,10.9058288 14.7350001,11.2002156 C14.7350001,11.4946024 14.4992401,11.733525 14.2087501,11.733525 L13.1562501,11.733525 C12.8657601,11.733525 12.6300001,11.4946024 12.6300001,11.2002156 C12.6300001,10.9058288 12.8657601,10.6669062 13.1562501,10.6669062 L14.2087501,10.6669062 Z M16.3137501,2.13395615 L9.47250009,2.13395615 L9.47250009,0.534028016 C9.47250009,0.375101827 9.40303509,0.224708581 9.28199758,0.123379797 C9.16201258,0.0220510143 9.00098008,-0.0216803541 8.84942008,0.0103182059 L0.429420004,1.61024635 C0.179977502,1.65717757 0,1.87690104 0,2.13395615 L0,13.8667625 C0,14.122751 0.179977502,14.3435411 0.429420004,14.3904723 L8.84942008,15.9904004 C8.88099508,15.9968002 8.91362258,16 8.94625008,16 C9.06834008,16 9.18727258,15.9573352 9.28199758,15.8773389 C9.40303509,15.77601 9.47250009,15.6245502 9.47250009,15.4666906 L9.47250009,13.8667625 L16.3137501,13.8667625 C16.6042402,13.8667625 16.8400002,13.6278399 16.8400002,13.3334531 L16.8400002,2.66726553 C16.8400002,2.37287875 16.6042402,2.13395615 16.3137501,2.13395615 Z M7.23699007,9.78267924 C7.42854507,10.0034693 7.40644257,10.3405208 7.18752257,10.5346455 C7.08753506,10.6231748 6.96439256,10.6669062 6.84125006,10.6669062 C6.69495256,10.6669062 6.54970756,10.6050424 6.44551006,10.4845144 L4.91517504,8.71286063 L3.57323753,10.4621155 C3.46904003,10.5965094 3.31327003,10.6669062 3.15750003,10.6669062 C3.04488253,10.6669062 2.93121253,10.6306412 2.83438253,10.5549112 C2.60493752,10.373586 2.56389002,10.0386678 2.74176252,9.80614484 L4.20894754,7.89476404 L2.76176003,6.21803941 C2.57020502,5.99724926 2.59230752,5.66019777 2.81122753,5.46607315 C3.02909503,5.27194854 3.36063253,5.29328092 3.55429253,5.51620424 L4.86781254,7.03720261 L6.42656506,5.00636047 C6.60549006,4.7749042 6.93597506,4.73223944 7.16542006,4.91356464 C7.39486507,5.09382321 7.43591257,5.4287415 7.25698757,5.66233101 L5.57298755,7.8552992 L7.23699007,9.78267924 Z M15.7875001,12.8001437 L9.47250009,12.8001437 L9.47250009,11.733525 L11.0512501,11.733525 C11.3417401,11.733525 11.5775001,11.4946024 11.5775001,11.2002156 C11.5775001,10.9058288 11.3417401,10.6669062 11.0512501,10.6669062 L9.47250009,10.6669062 L9.47250009,9.60028749 L11.0512501,9.60028749 C11.3417401,9.60028749 11.5775001,9.36136488 11.5775001,9.0669781 C11.5775001,8.77259133 11.3417401,8.53366872 11.0512501,8.53366872 L9.47250009,8.53366872 L9.47250009,7.46704994 L11.0512501,7.46704994 C11.3417401,7.46704994 11.5775001,7.22812733 11.5775001,6.93374055 C11.5775001,6.63935377 11.3417401,6.40043116 11.0512501,6.40043116 L9.47250009,6.40043116 L9.47250009,5.33381243 L11.0512501,5.33381243 C11.3417401,5.33381243 11.5775001,5.09488983 11.5775001,4.80050305 C11.5775001,4.50611627 11.3417401,4.26719367 11.0512501,4.26719367 L9.47250009,4.26719367 L9.47250009,3.20057491 L15.7875001,3.20057491 L15.7875001,12.8001437 Z" id="path-1"></path>
                </g>
            </g>
        </g>
    </g>
</svg>