<?xml version="1.0" encoding="UTF-8"?>
<svg width="11px" height="16px" viewBox="0 0 11 16" version="1.1" xmlns="http://www.w3.org/2000/svg" xmlns:xlink="http://www.w3.org/1999/xlink">
    <!-- Generator: Sketch 49.1 (51147) - http://www.bohemiancoding.com/sketch -->
    <title>path-1</title>
    <desc>Created with Sketch.</desc>
    <defs></defs>
    <g id="design-desk***" stroke="none" stroke-width="1" fill="none" fill-rule="evenodd">
        <g id="subirdoc-01" transform="translate(-211.000000, -275.000000)" fill="#0079C8" fill-rule="nonzero">
            <g id="Group-5" transform="translate(211.000000, 275.000000)">
                <path d="M8.78619395,16 L2.21085895,16 C1.44954056,16 0.823294789,15.3985298 0.757477588,14.6025878 L0.00549148061,5.66874436 C-0.0298729845,5.24162834 0.106673155,4.81451231 0.383203643,4.49830202 C0.659734124,4.18209173 1.05070796,4 1.46083755,4 L9.54063593,4 C9.94880085,4 10.3417393,4.18209173 10.6167963,4.49830202 C10.8933268,4.81451231 11.029873,5.24162834 10.9945085,5.66874436 L10.2425224,14.6025878 C10.1752316,15.3990457 9.5484947,16 8.78766747,16 L8.78619395,16 Z M1.52454896,5 C1.37659161,5 1.2387882,5.06414204 1.13773235,5.18113711 C1.03667652,5.29813218 0.989775009,5.44899426 1.00186302,5.60601396 L1.7421333,14.4930214 C1.76630933,14.7819171 1.98969593,15 2.26336867,15 L8.73626096,15 C9.00993372,15 9.23332035,14.7819171 9.25749637,14.4930214 L9.99776666,5.60601396 C10.0113052,5.44899426 9.96295311,5.29813218 9.86189732,5.18113711 C9.76374258,5.06414204 9.62593916,5 9.4779818,5 L1.52406543,5 L1.52454896,5 Z M6,13.554657 L6,7.44534304 C6,7.19908348 5.77648308,7 5.5,7 C5.223517,7 5,7.19908348 5,7.44534304 L5,13.554657 C5,13.8009166 5.223517,14 5.5,14 C5.77648308,14 6,13.8009166 6,13.554657 Z M3.67040986,13.9985824 C3.86463246,13.9839343 4.01122959,13.7712997 3.99932323,13.5260612 L3.70166407,7.41872361 C3.69012978,7.17206755 3.52158029,6.98447655 3.32959013,7.00101478 C3.13536754,7.01566301 2.98877041,7.22829756 3.00067677,7.47353613 L3.2972197,13.5822912 C3.308754,13.8185518 3.46353675,14 3.64734128,14 C3.65552691,14 3.66371253,14 3.67078194,13.9985824 L3.67040986,13.9985824 Z M7.70168035,13.5808703 L7.99936346,7.47348469 C8.01089874,7.22682661 7.86428974,7.01560797 7.67042363,7.00095963 C7.48102271,6.98489378 7.30985492,7.17248627 7.29831971,7.41867174 L7.00063653,13.5260574 C6.98910131,13.7727155 7.13571025,13.9839342 7.32957642,13.9985824 C7.33664639,13.9985824 7.34483267,14 7.35153054,14 C7.53534991,13.9985824 7.68977303,13.8171328 7.70168035,13.5808703 Z M10.6102175,3.04206005 L8.49858686,2.67752313 L8.55132792,2.13250719 C8.61053714,1.34156944 8.08163441,0.64675082 7.32136778,0.515353913 L4.4589242,0.0214651834 C3.69865756,-0.109420443 2.97720038,0.369641399 2.77967037,1.14779735 L2.65826655,1.67031732 L0.548128653,1.30424658 C0.291389407,1.25976592 0.0505719741,1.43666602 0.00678698419,1.70048236 C-0.0369980057,1.96429871 0.135654164,2.21175435 0.39239341,2.25623501 L10.452492,3.99302593 C10.7092312,4.03801786 10.9500487,3.86060648 10.9933361,3.59679014 C11.0366235,3.33450762 10.8644689,3.08551817 10.6092224,3.04052623 L10.6102175,3.04206005 Z M4.00049401,2.11214326 L4.10374254,1.53342151 C4.17488028,1.17287388 4.43571866,0.948767515 4.71038939,1.0100672 L7.55244089,1.64679296 C7.82711162,1.70875178 8.01878829,2.03634258 7.99853381,2.39425365 L7.95357865,3 L4,2.11214326 L4.00049401,2.11214326 Z" id="path-1"></path>
            </g>
        </g>
    </g>
</svg>