<?xml version="1.0" encoding="UTF-8"?>
<svg width="14px" height="14px" viewBox="0 0 14 14" version="1.1" xmlns="http://www.w3.org/2000/svg" xmlns:xlink="http://www.w3.org/1999/xlink">
    <!-- Generator: Sketch 49.1 (51147) - http://www.bohemiancoding.com/sketch -->
    <title>noun_link_1832623</title>
    <desc>Created with Sketch.</desc>
    <defs></defs>
    <g id="design-desk***" stroke="none" stroke-width="1" fill="none" fill-rule="evenodd">
        <g id="galeria-01" transform="translate(-365.000000, -381.000000)" fill="#0079C8" fill-rule="nonzero">
            <g id="noun_link_1832623" transform="translate(364.000000, 380.000000)">
                <g id="Group" transform="translate(0.000000, 0.117300)">
                    <g transform="translate(8.032709, 7.971055) rotate(-45.000000) translate(-8.032709, -7.971055) translate(-0.151199, 4.936572)" id="Shape">
                        <path d="M2.94542494,0.0065164267 C1.32283464,0.0065164267 0,1.329351 0,2.94542475 C0,4.56801492 1.32283464,5.8908495 2.94542494,5.8908495 L6.62068969,5.8908495 C8.16508271,5.8908495 9.4423024,4.69834357 9.55959803,3.1800162 C9.57914745,2.88677684 9.33803959,2.6065705 9.05131683,2.58050484 C8.75807766,2.5609556 8.47787131,2.80206346 8.45180547,3.08878622 C8.38012492,4.0467009 7.60467002,4.78957354 6.62068969,4.78957354 L2.94542494,4.78957354 C1.91582953,4.78957354 1.10127613,3.97502016 1.10127613,2.94542475 C1.10127613,1.92234576 1.91582953,1.1077925 2.94542494,1.1077925 L6.43822974,1.1077925 C6.73146891,1.11430893 6.99864243,0.847135434 6.99864243,0.560412674 C6.99864243,0.267173482 6.73146891,-8.67361738e-19 6.43822974,0.0065164267 L2.94542494,0.0065164267 Z M9.56611444,0.0065164267 C8.01520501,0.0065164267 6.73798532,1.19902246 6.6272061,2.7173499 C6.60114027,3.00407266 6.84876454,3.29079542 7.1354873,3.31034466 C7.42221006,3.33641032 7.70893282,3.09530264 7.72848225,2.80206346 C7.8001628,1.85066521 8.58213412,1.1077925 9.56611444,1.1077925 L13.2413792,1.1077925 C14.2709746,1.1077925 15.0790116,1.92234576 15.0790116,2.94542475 C15.0790116,3.97502016 14.2709746,4.78957354 13.2413792,4.78957354 L9.7485744,4.78957354 C9.45533522,4.78305768 9.1881617,5.05023046 9.1881617,5.33695322 C9.1881617,5.6301924 9.45533522,5.89736592 9.7485744,5.8908495 L13.2413792,5.8908495 C14.8639696,5.8908495 16.1868041,4.56801492 16.1868041,2.94542475 C16.1868041,1.329351 14.8639696,0.0065164267 13.2413792,0.0065164267 L9.56611444,0.0065164267 Z"></path>
                    </g>
                </g>
            </g>
        </g>
    </g>
</svg>