<?xml version="1.0" encoding="UTF-8"?>
<svg width="31px" height="26px" viewBox="0 0 31 26" version="1.1" xmlns="http://www.w3.org/2000/svg" xmlns:xlink="http://www.w3.org/1999/xlink">
    <!-- Generator: Sketch 49.1 (51147) - http://www.bohemiancoding.com/sketch -->
    <title>doctor-advice</title>
    <desc>Created with Sketch.</desc>
    <defs></defs>
    <g id="design-desk***" stroke="none" stroke-width="1" fill="none" fill-rule="evenodd">
        <g id="Home_desk-menu" transform="translate(-13.000000, -572.000000)" fill="#FFFFFF" fill-rule="nonzero">
            <g id="Group" transform="translate(0.000000, 53.000000)">
                <g id="doctor-advice" transform="translate(13.000000, 519.000000)">
                    <path d="M27.4697801,0 L19.3562811,0 C17.4303543,0 15.8260613,1.57808361 15.8260613,3.47254631 L15.8260613,9.60382047 C15.8260613,11.4982831 17.4303543,13.0763667 19.3562811,13.0763667 L19.7224784,13.0763667 L17.660923,14.9736883 C17.3857906,15.2443258 17.3402581,15.6941177 17.6153906,15.9657082 C17.751988,16.100074 17.9360553,16.19251 18.1210917,16.19251 C18.3061279,16.19251 18.487289,16.1477214 18.5783539,16.0104968 L23.2526982,11.7279439 L19.3107486,11.7279439 C18.1637178,11.7279439 17.2007544,10.7807125 17.2007544,9.65242079 L17.2007544,3.5211467 C17.2007544,2.39285504 18.1637178,1.44562369 19.3107486,1.44562369 L27.4242477,1.44562369 C28.5712785,1.44562369 29.5342419,2.39285504 29.5342419,3.5211467 L29.5342419,9.65242079 C29.5342419,10.7807125 28.5712785,11.7279439 27.4242477,11.7279439 L25.3626923,11.7279439 L23.8484955,13.1249671 L27.4697801,13.1249671 C29.3957069,13.1249671 31,11.5468835 31,9.65242079 L31,3.5211467 C30.9544675,1.57903655 29.3957069,0.000952953941 27.4697801,0.000952953941 L27.4697801,0 Z M8.58155419,16.1906042 C10.6702353,16.1906042 13.1193011,13.9568916 13.1193011,11.0570678 L13.1193011,10.0297887 C13.1193011,8.06385477 11.9383631,5.92353123 8.58155419,5.92353123 C5.45143887,5.92353123 4.04380731,7.97808936 4.04380731,10.0297887 L4.04380731,11.0570678 C3.99827484,13.913056 6.49577942,16.1906042 8.58155419,16.1906042 Z M5.49697134,9.98500007 C5.49697134,8.3325864 6.6779093,7.34914299 8.58542928,7.34914299 C9.35754377,7.34914299 9.99306083,7.48350881 10.4929493,7.75128748 C10.3563518,8.15343199 9.67530231,9.18071103 7.04507541,9.58285555 C6.68178441,9.62764417 6.45509082,9.94021145 6.49965451,10.2975673 C6.54518699,10.6101346 6.81741305,10.8340776 7.13517159,10.8340776 C7.18070405,10.8340776 7.22623653,10.8340776 7.22623653,10.8340776 C9.76927359,10.4319332 10.9017727,9.44944261 11.4006924,8.7347309 C11.5828223,9.09208678 11.6729185,9.53901985 11.6729185,10.0297887 L11.6729185,11.0570678 C11.6729185,13.201203 9.85646343,14.7611806 8.58446051,14.7611806 C7.35799008,14.7611806 5.49600256,13.108767 5.49600256,11.0570678 L5.49600256,9.98500007 L5.49697134,9.98500007 Z M17.297632,24.404072 C17.2520995,23.9123502 16.8888085,19.671727 16.6165825,18.7340252 C16.298824,17.7067461 13.6220958,16.4593358 12.0333031,15.8332483 C11.6700121,15.6988824 11.3067211,15.8780369 11.1701237,16.1906042 C11.0335263,16.5479601 11.2156562,16.905316 11.5334147,17.0396817 C11.5973539,17.0635056 11.657418,17.090188 11.7213573,17.1168706 C11.7756087,17.1969183 11.8153285,17.2864956 11.8511732,17.352249 C12.0333031,17.8439708 11.8511732,18.289951 11.8056408,18.3795281 C11.4878822,18.3347396 11.1701237,18.4243167 10.8523652,18.6025182 C10.0802507,19.0494512 9.8535571,19.9871532 10.3069443,20.7466535 C10.8068327,21.5061539 11.8056408,21.7291439 12.5322228,21.3269996 C13.3043373,20.8800664 13.5310308,19.9423646 13.0776437,19.1828642 C12.8955138,18.9150855 12.6688202,18.6911424 12.3965941,18.5577296 C12.475065,18.3614221 12.6232877,17.9297361 12.4779714,17.4380145 C13.9224164,18.0841139 15.1605122,18.8083552 15.3445795,19.1380756 C15.5267094,19.8079987 15.844468,22.7983529 15.9800967,24.5403437 C15.9800967,24.852911 16.2978552,25.1206897 16.6156137,25.1206897 C16.6156137,25.1206897 16.6611462,25.1206897 16.7066786,25.1206897 C17.0699696,25.0730421 17.3421958,24.7604748 17.2966633,24.4031189 L17.297632,24.404072 Z M12.6232877,19.448737 C12.9410463,19.9404586 12.7598852,20.5655931 12.2599967,20.833372 C11.7601083,21.1011506 11.1245912,20.9677377 10.8523652,20.4760161 C10.5801391,19.9842943 10.7157677,19.3591597 11.2156562,19.0913811 C11.7155446,18.8236024 12.3510617,18.9570152 12.6232877,19.448737 Z M12.2144642,19.9852472 C12.2144642,20.2320611 12.0119901,20.4321804 11.7601083,20.4321804 C11.5082265,20.4321804 11.3057523,20.233014 11.3057523,19.9852472 C11.3057523,19.7374806 11.5082265,19.5383142 11.7601083,19.5383142 C12.008115,19.5383142 12.2144642,19.7403393 12.2144642,19.9852472 Z M0.640497173,25.1187837 L0.594964698,25.1187837 C0.231673684,25.0739952 -0.0405523669,24.7614279 0.00498009205,24.404072 C0.0505125665,23.9123502 0.413803582,19.671727 0.686029632,18.7340252 C1.00378817,17.6619575 3.68051631,16.4593358 5.26930898,15.8332483 C5.58706751,15.6988824 5.995891,15.8780369 6.1324884,16.1906042 C6.26908583,16.5031715 6.08695593,16.905316 5.76919741,17.0396817 C3.95274238,17.7991821 2.13919366,18.736884 1.95803254,19.1390285 C1.77590266,19.8089517 1.45814412,22.8021645 1.32251548,24.5412966 C1.27407668,24.8538639 1.00475695,25.1216426 0.641465938,25.1187837 L0.640497173,25.1187837 Z M8.76368407,21.9950167 L8.40039307,20.3864388 C8.30932812,19.9395057 7.90050465,19.448737 7.53721363,19.3143711 L5.81182355,18.5996593 L5.53959749,17.4380145 C5.40300006,17.5275916 5.26737142,17.5723802 5.13077401,17.6610046 L5.40300006,18.8226494 L4.31312705,20.4312274 C4.08643346,20.7885833 3.94983603,21.4585065 4.08643346,21.9054395 L4.44972447,23.5140176 C4.58632188,24.0057392 5.03970906,24.3183065 5.44853254,24.1839407 L5.94842096,24.0047863 L5.99395344,24.1839407 C6.03948591,24.3183065 6.13055086,24.4069308 6.2661795,24.3630951 C6.40180814,24.3192595 6.44830938,24.1839407 6.40277692,24.0505278 L6.17608333,23.2014503 C6.13055086,23.0670844 6.03948591,22.9784601 5.90385727,23.0222958 C5.76822862,23.0661315 5.72172738,23.2014503 5.76725984,23.3348631 L5.81279232,23.5140176 L5.3129039,23.6931719 C5.13077401,23.7827492 4.90408042,23.6035948 4.85854795,23.3806046 L4.49525695,21.7720267 C4.404192,21.4594594 4.49525695,21.0125263 4.67738683,20.7895363 L5.76725984,19.1809583 L7.40255377,19.8508815 C7.62924736,19.9404586 7.90244219,20.2978145 7.99253836,20.6103818 L8.35582938,22.2189598 C8.40136184,22.4419499 8.3102969,22.7106815 8.08360331,22.7554701 L7.76584477,22.8898359 L7.7203123,22.7106815 C7.67477984,22.5763157 7.58371489,22.4876914 7.44808625,22.5315271 C7.3124576,22.5753627 7.26595635,22.7106815 7.31148882,22.8440944 L7.53818241,23.6931719 C7.58371489,23.8275378 7.67477984,23.9161621 7.81040848,23.8723264 C7.94603712,23.8284907 7.99253836,23.6931719 7.94700589,23.5597591 L7.90147341,23.3806046 L8.21923195,23.2462389 C8.6735879,23.0232487 8.90318782,22.4895973 8.76465285,21.9950167 L8.76368407,21.9950167 Z" id="path-1"></path>
                </g>
            </g>
        </g>
    </g>
</svg>