<?xml version="1.0" encoding="UTF-8"?>
<svg width="16px" height="16px" viewBox="0 0 16 16" version="1.1" xmlns="http://www.w3.org/2000/svg" xmlns:xlink="http://www.w3.org/1999/xlink">
    <!-- Generator: Sketch 49.1 (51147) - http://www.bohemiancoding.com/sketch -->
    <title>whatsapp</title>
    <desc>Created with Sketch.</desc>
    <defs></defs>
    <g id="design-desk***" stroke="none" stroke-width="1" fill="none" fill-rule="evenodd">
        <g id="galeria-01" transform="translate(-364.000000, -289.000000)" fill="#0079C8" fill-rule="nonzero">
            <g id="whatsapp" transform="translate(364.000000, 289.000000)">
                <path d="M8.08174744,0 C3.77738196,0 0.287991,3.49039093 0.287991,7.79375648 C0.287991,9.26571048 0.695978248,10.6436674 1.40645605,11.8171307 L0,16 L4.31536514,14.6190431 C5.43233024,15.2380238 6.71679008,15.5895128 8.08224744,15.5895128 C12.3866129,15.5895128 15.8760038,12.1006218 15.8760038,7.7957564 C15.8760038,3.49089091 12.385613,0.000499984 8.08074744,0.000499984 L8.08174744,0 Z M8.08174744,14.3465517 C6.75078904,14.3465517 5.51132777,13.9480642 4.47736008,13.2635855 L1.95893878,14.0700603 L2.77791319,11.6371363 C1.9934377,10.5556702 1.52945221,9.2292116 1.52945221,7.7952564 C1.52945221,4.18286929 4.46836036,1.24246118 8.08224744,1.24246118 C11.6961345,1.24246118 14.6350426,4.18136934 14.6350426,7.7952564 C14.6350426,11.4076435 11.6961345,14.3465517 8.08224744,14.3465517 L8.08174744,14.3465517 Z M6.25330458,4.57035718 C6.09380957,4.18736914 5.93481454,4.25186713 5.82381801,4.25186713 C5.71282147,4.25186713 5.58482547,4.23636762 5.45832942,4.23636762 C5.33183338,4.23636762 5.12383988,4.28336614 4.94884535,4.47536014 C4.77385082,4.66735414 4.27986626,5.12833974 4.27986626,6.06931034 C4.27986626,7.01028096 4.96434486,7.91775256 5.0593419,8.04424864 C5.15433893,8.17074464 6.38130058,10.1631824 8.32323992,10.9286585 C10.2651792,11.6941346 10.2651792,11.4381426 10.6151682,11.4066435 C10.9651574,11.3751446 11.744633,10.944158 11.904128,10.4986719 C12.063623,10.0531858 12.063623,9.67069776 12.0151246,9.59070032 C11.9666261,9.5107028 11.84013,9.46270432 11.6496359,9.3687072 C11.4591419,9.27471016 10.5186713,8.81072464 10.3431768,8.74672664 C10.1681822,8.68272864 10.0401862,8.65122968 9.91369016,8.84222368 C9.78719416,9.03321768 9.4197056,9.46420424 9.30920912,9.59070032 C9.19871256,9.71719632 9.08571608,9.73469576 8.895222,9.6391988 C8.704728,9.54370176 8.0887472,9.34220808 7.35927,8.6907284 C6.79078776,8.18474424 6.40779976,7.55976376 6.29680322,7.36726976 C6.1858067,7.17477576 6.28430362,7.07327896 6.38130058,6.97828192 C6.46729792,6.89228464 6.57179464,6.75478888 6.66729168,6.6437924 C6.76278864,6.53279584 6.79528768,6.45329832 6.85778568,6.32530234 C6.92028376,6.19730634 6.88928472,6.0863098 6.84228616,5.99081278 C6.79528768,5.89531577 6.4127996,4.95334521 6.25330458,4.57035718 Z" id="path-1"></path>
            </g>
        </g>
    </g>
</svg>