<?xml version="1.0" encoding="UTF-8"?>
<svg width="24px" height="21px" viewBox="0 0 24 21" version="1.1" xmlns="http://www.w3.org/2000/svg" xmlns:xlink="http://www.w3.org/1999/xlink">
    <!-- Generator: Sketch 49.1 (51147) - http://www.bohemiancoding.com/sketch -->
    <title>add-picture</title>
    <desc>Created with Sketch.</desc>
    <defs></defs>
    <g id="design-desk***" stroke="none" stroke-width="1" fill="none" fill-rule="evenodd">
        <g id="Home_desk-menu" transform="translate(-16.000000, -460.000000)" fill="#FFFFFF" fill-rule="nonzero">
            <g id="Group" transform="translate(0.000000, 53.000000)">
                <g id="add-picture" transform="translate(16.000000, 407.000000)">
                    <path d="M19.2,5.14285714 L21.6,5.14285714 L21.6,6.42857143 L19.2,6.42857143 L19.2,9 L18,9 L18,6.42857143 L15.6,6.42857143 L15.6,5.14285714 L18,5.14285714 L18,2.57142857 L19.2,2.57142857 L19.2,5.14285714 Z M19.2,5.14285714 L21.6,5.14285714 L21.6,6.42857143 L19.2,6.42857143 L19.2,9 L18,9 L18,6.42857143 L15.6,6.42857143 L15.6,5.14285714 L18,5.14285714 L18,2.57142857 L19.2,2.57142857 L19.2,5.14285714 Z M19.2,5.14285714 L21.6,5.14285714 L21.6,6.42857143 L19.2,6.42857143 L19.2,9 L18,9 L18,6.42857143 L15.6,6.42857143 L15.6,5.14285714 L18,5.14285714 L18,2.57142857 L19.2,2.57142857 L19.2,5.14285714 Z M7.2,4.5 C7.2,3.43414286 8.0052,2.57142857 9,2.57142857 C9.9948,2.57142857 10.8,3.43414286 10.8,4.5 C10.8,5.56585714 9.9948,6.42857143 9,6.42857143 C8.0052,6.42857143 7.2,5.56585714 7.2,4.5 Z M2.4,1.28571429 L21.6,1.28571429 C22.2636,1.28571429 22.8,1.86171429 22.8,2.57142857 L22.8,16.1305714 L16.8,10.2857143 L12,12.8571429 L4.8,5.14285714 L1.2,10.1352857 L1.2,2.57142857 C1.2,1.86171429 1.7376,1.28571429 2.4,1.28571429 Z M21.6,0 L2.4,0 C1.0752,0 0,1.152 0,2.57142857 L0,18 C0,19.4194286 1.0752,20.5714286 2.4,20.5714286 L21.6,20.5714286 C22.9248,20.5714286 24,19.4194286 24,18 L24,2.57142857 C24,1.152 22.9248,0 21.6,0 Z" id="path-1"></path>
                </g>
            </g>
        </g>
    </g>
</svg>