<?xml version="1.0" encoding="UTF-8"?>
<svg width="16px" height="11px" viewBox="0 0 16 11" version="1.1" xmlns="http://www.w3.org/2000/svg" xmlns:xlink="http://www.w3.org/1999/xlink">
    <!-- Generator: Sketch 49.1 (51147) - http://www.bohemiancoding.com/sketch -->
    <title>linear</title>
    <desc>Created with Sketch.</desc>
    <defs></defs>
    <g id="design-desk***" stroke="none" stroke-width="1" fill="none" fill-rule="evenodd">
        <g id="galeria-01" transform="translate(-364.000000, -353.000000)" fill="#0079C8" fill-rule="nonzero">
            <g id="linear" transform="translate(364.000000, 353.000000)">
                <path d="M15.0552408,0.278824091 C15.0447656,0.271014331 15.0357189,0.263692686 15.0252437,0.255882926 C15.0195299,0.251489935 15.01334,0.246608838 15.0071501,0.242215848 C15.0028648,0.240751512 14.9981033,0.240751512 14.9952465,0.239287185 C14.9385851,0.208536259 14.8747816,0.19047619 14.8047881,0.19047619 L0.407090309,0.19047619 C0.22091728,0.19047619 0.0709313448,0.31250368 0.019983741,0.483342156 C0.0171268648,0.491151916 0.0156984305,0.49847357 0.0137938438,0.50628333 C0.00617551238,0.538498583 0.00046176,0.573642499 0.00046176,0.608298309 L0.00046176,10.4393208 C0.00046176,10.6741016 0.17901645,10.8571429 0.408042598,10.8571429 L14.8057404,10.8571429 C15.0347666,10.8571429 15.2133213,10.6741016 15.238557,10.4393208 L15.238557,0.608298309 C15.2357001,0.472603741 15.1580884,0.357897905 15.0542885,0.278824091 L15.0552408,0.278824091 Z M14.4229192,10.0473685 L0.814194994,10.0473685 L0.814194994,1.44296632 L7.37738926,6.65793295 C7.50404404,6.76141227 7.70783444,6.76141227 7.86115337,6.65793295 L14.4243476,1.44296632 L14.4243476,10.0473685 L14.4229192,10.0473685 Z M1.57412376,1.02465609 L13.6591813,1.02465609 L7.60451078,5.84913478 L1.57364761,1.02465609 L1.57412376,1.02465609 Z" id="path-1"></path>
            </g>
        </g>
    </g>
</svg>