<?xml version="1.0" encoding="utf-8"?>
<!-- Generator: Adobe Illustrator 21.0.0, SVG Export Plug-In . SVG Version: 6.00 Build 0)  -->
<svg version="1.1" id="Layer_1" xmlns="http://www.w3.org/2000/svg" xmlns:xlink="http://www.w3.org/1999/xlink" x="0px" y="0px"
	 viewBox="0 0 25 24" style="enable-background:new 0 0 25 24;" xml:space="preserve">
<style type="text/css">
	.st0{fill:#FFFFFF;}
</style>
<g>
	<path id="path-1" class="st0" d="M11.2,10.6l2.6,2.6l-2.9,1l-0.8-0.8L11.2,10.6z M21.1,6.1l-6.6,6.5l-1-1l6.6-6.5l-0.7-0.7
		l-6.6,6.5l-1.1-1.1l6.6-6.5l-0.7-0.7l-7.2,7.1c-0.1,0.1-0.1,0.1-0.1,0.2l-2,5.3c-0.1,0.2,0,0.4,0.1,0.5c0.1,0.1,0.2,0.2,0.3,0.2
		c0.1,0,0.1,0,0.2,0l5.3-1.7c0.1,0,0.1-0.1,0.2-0.1l7.3-7.2L21.1,6.1L21.1,6.1z M23.5,3.7l-0.8,0.8l-2.7-2.7L20.7,1
		c0,0,0.1-0.1,0.1-0.1c0,0,0.1,0,0.1,0.1l2.5,2.5c0,0,0.1,0.1,0.1,0.1C23.5,3.7,23.5,3.7,23.5,3.7L23.5,3.7z M24.2,2.8l-2.6-2.5
		C21.4,0.1,21.1,0,20.8,0c-0.3,0-0.6,0.1-0.8,0.3l-1.5,1.5l4.2,4.1l1.5-1.5C24.6,4,24.6,3.3,24.2,2.8L24.2,2.8z M16.7,23.4H2.5
		c-1.1,0-2-0.9-2-2V7.2c0-1.1,0.9-2,2-2H12c0.3,0,0.6,0.3,0.6,0.6S12.4,6.5,12,6.5H2.4c-0.4,0-0.6,0.3-0.6,0.6v14.3
		c0,0.4,0.3,0.6,0.6,0.6h14.3c0.4,0,0.6-0.3,0.6-0.6v-8.9c0-0.3,0.3-0.6,0.6-0.6s0.6,0.3,0.6,0.6v8.9C18.7,22.5,17.8,23.4,16.7,23.4
		z"/>
</g>
<title>draft</title>
<desc>Created with Sketch.</desc>
<g id="Symbols">
	<g id="top_bar" transform="translate(-1174.000000, -15.000000)">
		<g id="draft">
			<path id="path-1_1_" class="st0" d="M1185.2,25.6l2.6,2.6l-2.9,1l-0.8-0.8L1185.2,25.6z M1195.1,21.1l-6.6,6.5l-1-1l6.6-6.5
				l-0.7-0.7l-6.6,6.5l-1.1-1.1l6.6-6.5l-0.7-0.7l-7.2,7.1c-0.1,0.1-0.1,0.1-0.1,0.2l-2,5.3c-0.1,0.2,0,0.4,0.1,0.5
				c0.1,0.1,0.2,0.2,0.3,0.2c0.1,0,0.1,0,0.2,0l5.3-1.7c0.1,0,0.1-0.1,0.2-0.1l7.3-7.2L1195.1,21.1L1195.1,21.1z M1197.5,18.7
				l-0.8,0.8l-2.7-2.7l0.8-0.8c0,0,0.1-0.1,0.1-0.1c0,0,0.1,0,0.1,0.1l2.5,2.5c0,0,0.1,0.1,0.1,0.1
				C1197.5,18.7,1197.5,18.7,1197.5,18.7L1197.5,18.7z M1198.2,17.8l-2.6-2.5c-0.2-0.2-0.5-0.3-0.8-0.3c-0.3,0-0.6,0.1-0.8,0.3
				l-1.5,1.5l4.2,4.1l1.5-1.5C1198.6,19,1198.6,18.3,1198.2,17.8L1198.2,17.8z M1190.7,38.4h-14.2c-1.1,0-2-0.9-2-2V22.2
				c0-1.1,0.9-2,2-2h9.6c0.3,0,0.6,0.3,0.6,0.6s-0.3,0.6-0.6,0.6h-9.6c-0.4,0-0.6,0.3-0.6,0.6v14.3c0,0.4,0.3,0.6,0.6,0.6h14.3
				c0.4,0,0.6-0.3,0.6-0.6v-8.9c0-0.3,0.3-0.6,0.6-0.6s0.6,0.3,0.6,0.6v8.9C1192.7,37.5,1191.8,38.4,1190.7,38.4z"/>
		</g>
	</g>
</g>
</svg>
