<?xml version="1.0" encoding="UTF-8"?>
<svg width="132px" height="59px" viewBox="0 0 132 59" version="1.1" xmlns="http://www.w3.org/2000/svg" xmlns:xlink="http://www.w3.org/1999/xlink">
    <!-- Generator: Sketch 49.1 (51147) - http://www.bohemiancoding.com/sketch -->
    <title>logo-bupa-white</title>
    <desc>Created with Sketch.</desc>
    <defs>
        <polygon id="path-1" points="0.232556394 0.181600414 92.1020021 0.181600414 92.1020021 58.5805928 0.232556394 58.5805928"></polygon>
    </defs>
    <g id="design-desk***" stroke="none" stroke-width="1" fill="none" fill-rule="evenodd">
        <g id="404" transform="translate(-354.000000, -199.000000)">
            <g id="logo-bupa-white" transform="translate(354.000000, 199.000000)">
                <path d="M35.4459275,14.2639082 L34.3533495,14.2639082 C34.3533495,14.2639082 32.7354041,23.5252504 32.5540827,24.5806343 C32.1588949,26.8448278 31.0709661,28.3976834 27.9977998,28.3976834 C26.2543244,28.3976834 24.5526922,27.3422995 24.94788,24.9804714 C25.105955,24.0506177 26.2636228,17.3370745 26.3426604,16.7977594 C26.6681092,14.9752462 25.1152536,14.2639082 23.8367049,14.2639082 L22.8696571,14.2639082 C22.6325443,15.6586887 21.567862,21.5911548 21.1633757,23.9111397 C21.0011161,24.7312706 20.9490443,25.5695337 21.0099497,26.4031474 C21.3725928,29.5460527 24.1342581,31.4662004 27.5468209,31.4662004 C33.4420928,31.4662004 35.6597939,28.3883848 36.3804304,24.7247616 C36.6128938,23.5159518 37.7287181,17.4114628 37.8170541,16.8210057 C38.072764,14.9752462 36.5849982,14.2639082 35.4459275,14.2639082" id="Fill-1" fill="#0079C8" fill-rule="nonzero"></path>
                <path d="M11.9439699,17.4532597 C11.130348,17.6517834 10.2920849,17.7271016 9.45661142,17.6764246 L6.62055787,17.6764246 L7.94095002,10.1167145 L11.6603645,10.1167145 C16.1283112,10.1167145 15.7610191,16.193308 11.9439699,17.4532597 M10.316726,28.2023676 C9.38082836,28.3646272 8.4295881,28.4255326 7.48067247,28.3836892 L4.69111158,28.3836892 L6.08589202,20.4799333 L10.1958451,20.4799333 C15.6633844,20.4752841 15.1519649,27.0028565 10.316726,28.2023676 M19.2526195,13.1108432 C19.2526195,9.29844333 16.8071044,7.53172143 12.5065313,7.53172143 L4.18434134,7.53172143 L0,31.1128095 L7.62015051,31.1128095 C9.06886248,31.1509335 10.5189692,31.0653869 11.9532684,30.8575647 C16.2259459,29.9551418 17.9601229,26.8494306 18.3041688,24.56664 C18.7690956,21.4097868 16.7885073,19.3222655 14.5243137,18.8154953 C16.2166473,18.4342552 19.2526195,16.6814812 19.2526195,13.1108432" id="Fill-3" fill="#0079C8" fill-rule="nonzero"></path>
                <g id="Group-7" transform="translate(39.518779, 0.283606)">
                    <g id="Fill-5-Clipped">
                        <mask id="mask-2" fill="white">
                            <use xlink:href="#path-1"></use>
                        </mask>
                        <g id="path-1"></g>
                        <path d="M89.8936928,37.9099466 C88.3222402,37.9099466 86.1742782,37.8174262 84.9003788,37.3799299 C83.3893667,36.8638613 82.0596759,35.8414871 80.6462985,34.7530936 C79.9396097,34.2142433 79.2096746,33.6516819 78.4239483,33.1258496 C77.6926184,32.5702621 76.8115821,32.2462081 75.8947464,32.1959961 C74.8719074,32.1959961 73.8676655,32.7585574 72.6402586,34.0138599 C70.999067,35.7066583 68.3768799,39.546954 67.3307944,41.1179416 C67.2726786,41.230454 67.1629559,41.306702 67.0378905,41.3229744 C66.7821809,41.3229744 66.7728823,40.9877621 66.7728823,40.8580475 C66.7263897,36.459375 66.0336486,12.4598527 65.554774,5.29579539 C65.3409077,2.12452957 64.359912,0.181600414 62.9837287,0.181600414 C61.8772029,0.181600414 60.2267127,1.64565496 59.1945752,5.7607222 C56.5584401,16.2862004 50.9467734,39.7003798 48.5338033,51.578795 C48.5147413,51.718738 48.3859565,51.8168374 48.2460135,51.7977754 C48.1321065,51.7824328 48.0423757,51.693167 48.0270331,51.578795 C47.7573754,50.3606867 47.5156136,48.9845033 47.2877994,47.818002 C46.5671629,44.1543787 45.944161,40.9877621 44.7167541,39.2442865 C43.3219737,37.2683475 41.2344523,37.1432823 38.7191982,38.8119047 C38.1412941,39.2168559 37.5884962,39.6562118 37.0640588,40.1281124 C35.4461134,41.5228928 33.6236003,43.0938806 30.5922774,43.0938806 L0.962491494,43.0938806 L0.232556394,47.0271615 L31.4244965,47.0271615 C34.6138945,47.0271615 37.570829,45.1907005 39.3282524,43.9219153 C40.2209117,43.2803162 40.8439138,42.9079098 41.3413855,42.9079098 C42.0201786,42.9079098 42.3316796,43.6006509 42.58274,44.6513854 C42.7082702,45.1632698 42.8663454,45.8694937 43.0476669,46.6877648 C43.6427731,49.4034024 44.5307834,53.6616671 45.651257,56.5256162 C46.1812736,57.8511226 46.9577013,58.5805928 47.8457116,58.5805928 C49.2125964,58.5805928 50.6027276,56.971946 51.3884539,54.475289 C52.4391886,51.1510624 58.7482453,23.8273133 61.4029775,12.3859293 C61.5145601,11.9210025 61.5750005,11.651345 61.5796497,11.632283 C61.6261425,11.4281801 61.7609711,11.2928864 61.9190463,11.2928864 C62.0771213,11.2928864 62.2119502,11.4137674 62.2212488,11.6741264 L62.2212488,11.7159698 C62.4258166,23.2931124 63.0023258,43.6336607 63.8624404,45.7211821 C64.3273672,46.8737356 65.0666009,47.4832547 65.9778574,47.4832547 C67.0239427,47.4832547 68.3024915,46.6370878 69.1812032,45.3301787 C69.64613,44.6750966 70.2086915,43.8145171 70.8177456,42.9079098 C72.3287577,40.6716119 74.0350392,38.1377608 74.53716,37.5984456 C75.2856923,36.7987715 76.1504562,36.7987715 77.377863,37.6356398 L78.019462,38.1005666 C79.8210534,39.41352 81.8360461,40.4061387 83.9751745,41.0347198 C85.6791311,41.426188 87.4244665,41.6075096 89.1730563,41.5735698 C90.1029099,41.5735698 91.1303982,41.5368406 91.423302,41.5182436 L92.1020951,37.8778666 C91.7394523,37.8778666 90.781703,37.9099466 89.8936928,37.9099466" id="Fill-5" fill="#0079C8" fill-rule="nonzero" mask="url(#mask-2)"></path>
                    </g>
                </g>
                <path d="M50.3794232,16.9420262 C56.0329333,17.2581764 54.2708607,29.0301234 48.2779541,28.7186224 C42.1316216,28.3792257 44.1308069,16.5979803 50.3794232,16.9420262 Z M41.5132689,37.7521504 L43.2195503,28.4536141 C43.8890448,29.7833049 45.7812971,31.4663399 48.798672,31.4663399 C54.2429651,31.4663399 57.6090353,27.221558 57.9437825,22.2468412 C58.3064255,16.9652725 55.2007144,13.9200019 51.5975315,13.9200019 C49.0999447,13.8353852 46.7241686,14.9995619 45.260579,17.025713 L45.3070718,16.7978988 C45.6511176,15.170655 44.2656357,14.2640477 43.0893707,14.2640477 L41.9224044,14.2640477 C41.9224044,14.2640477 38.7516036,32.3961936 38.3145724,34.5859989 C37.8031529,37.1523948 39.886025,37.7521504 40.546221,37.7521504 L41.5132689,37.7521504 Z" id="Fill-8" fill="#0079C8" fill-rule="nonzero"></path>
                <path d="M69.8228022,16.6257829 C75.9691348,16.9698288 73.9699494,28.7138802 67.721333,28.3698344 C62.0724721,28.0722811 63.8298955,16.314282 69.8228022,16.6257829 M66.6427027,31.4522991 C69.9576309,31.4522991 71.7336515,29.9877796 72.8169308,28.3140432 L72.7564904,28.5697528 C72.4403402,30.1365562 73.7467845,31.0989547 74.9741913,31.0989547 L76.043523,31.0989547 L79.0051068,14.2453576 L75.3368343,14.2453576 L74.8719074,16.8164029 C74.207062,15.4913615 72.3380563,13.8966625 69.3206812,13.8966625 C63.9833214,13.8966625 60.821819,18.2948702 60.2964517,22.9720339 C59.6641512,28.3233416 63.1185575,31.4522991 66.6427027,31.4522991" id="Fill-10" fill="#0079C8" fill-rule="nonzero"></path>
            </g>
        </g>
    </g>
</svg>